<svg width="61" height="47" viewBox="0 0 61 47" fill="none" xmlns="http://www.w3.org/2000/svg">
<path d="M49.962 12.024C49.962 12.9816 49.47 13.8652 48.4912 14.6959L45.5971 17.0397C45.0098 17.5265 44.2532 17.8386 43.3379 17.9709C43.0998 18.0079 42.8565 18.0344 42.5972 18.045C41.9941 18.0714 41.4333 18.0291 40.9148 17.918C40.3434 17.8069 39.8195 17.6111 39.3433 17.336L32.5868 13.4367C31.8408 13.0081 31.4282 12.5055 31.3647 11.9393V11.5584C31.4547 10.8283 32.0367 10.2516 33.1001 9.823L37.1635 8.15109C38.809 7.50561 40.5972 7.22519 42.539 7.32572C44.4807 7.42095 46.1473 7.87068 47.5388 8.67489C48.9673 9.50026 49.761 10.4685 49.9303 11.5901C49.9515 11.7383 49.962 11.8811 49.962 12.024Z" stroke="#205363"/>
<path d="M59.8776 22.6905V22.7011C59.8776 23.574 59.3485 24.3201 58.2904 24.9285L57.3274 25.484C56.264 26.0978 54.973 26.4047 53.4545 26.4047C52.9783 26.4047 52.5286 26.3729 52.0948 26.3041C51.1477 26.1771 50.3065 25.8967 49.571 25.4735C49.2906 25.3147 49.0473 25.1401 48.8409 24.9602C48.6981 24.8386 48.571 24.7063 48.4599 24.5687C48.407 24.5105 48.3648 24.447 48.3224 24.3835C48.2695 24.3095 48.2219 24.2301 48.1849 24.1507C48.1478 24.082 48.116 24.0185 48.0896 23.9444C48.0578 23.865 48.0367 23.7857 48.0156 23.7063C47.9997 23.6375 47.9838 23.5688 47.9785 23.4947C47.9626 23.41 47.9573 23.3201 47.9573 23.2301C47.952 22.3624 48.4653 21.627 49.5023 21.0186C49.5129 21.008 49.5287 21.0027 49.5446 20.9921C49.6768 20.9127 49.8197 20.844 49.9625 20.7805C50.2271 20.6535 50.5076 20.5477 50.8038 20.463C51.206 20.3519 51.6397 20.2514 52.0948 20.1879C52.1477 20.1773 52.2006 20.1667 52.2535 20.1614L52.1001 18.6747C52.1001 18.6747 52.0948 18.643 52.0948 18.6271V18.5319C52.1212 18.2779 52.3911 18.1033 52.899 18.0187C53.4968 17.9181 53.9889 17.9816 54.3751 18.2038L58.2692 20.4524C59.3379 21.0662 59.8723 21.8122 59.8776 22.6905Z" stroke="#205363"/>
<path d="M41.3859 23.7275V23.9444C41.3435 25.1401 40.5975 26.1613 39.1531 26.9919L38.4494 27.3993L36.8727 28.3094L36.0157 28.8067L27.0794 23.6481L18.7039 18.8123L12.6724 15.3309L15.1644 13.8918L15.8151 13.5161C16.5188 13.114 17.2966 12.8019 18.1537 12.5955C18.3336 12.5479 18.5187 12.5056 18.7039 12.4738C20.2753 12.1617 22.0794 12.1564 24.1217 12.4527C24.9471 12.5691 25.7726 12.7331 26.5979 12.9394C27.3863 13.1352 28.1746 13.3733 28.9629 13.6537C29.2381 13.7436 29.5132 13.8442 29.7883 13.9553C30.0899 14.0664 30.3862 14.1881 30.6878 14.3151C30.9153 14.4103 31.1375 14.5055 31.365 14.6061C32.4073 15.0717 33.4495 15.606 34.4918 16.2092C35.8093 16.9711 36.9362 17.7224 37.8779 18.479H37.8832C39.444 19.7329 40.4917 20.9762 41.0208 22.209C41.2483 22.7434 41.3753 23.2513 41.3859 23.7275Z" stroke="#205363"/>
<path d="M30.6875 4.97126C30.6875 5.21464 30.5975 5.45802 30.4124 5.70669C30.2483 5.876 30.0578 6.01356 29.8303 6.12467C29.6081 6.23577 29.3648 6.33101 29.1055 6.40508C29.0738 6.42095 29.0261 6.46857 28.9627 6.54264C28.9627 6.80189 28.8939 7.05057 28.7458 7.28336C28.6029 7.51616 28.3858 7.71721 28.0949 7.88652C27.9679 7.96059 27.5341 8.09815 26.7881 8.3045C26.6928 8.32037 26.6294 8.35741 26.5976 8.4156L25.9204 8.91824C25.2432 9.30447 24.3807 9.47907 23.3278 9.43145C22.2802 9.37854 21.3492 9.12458 20.5397 8.65369L16.746 6.46328C15.9683 6.05059 15.4709 5.60087 15.2592 5.10353C15.1958 4.96068 15.1641 4.81783 15.1641 4.6697V4.64325C15.1746 4.30993 15.3598 3.96601 15.7143 3.63798C15.9365 3.43164 16.2117 3.25704 16.5344 3.10361C16.8519 2.95546 17.2064 2.84436 17.5873 2.77558C17.5873 2.77558 17.5909 2.77381 17.5979 2.77028C17.5979 2.77028 17.6667 2.70151 17.7408 2.63273C17.7408 2.55865 17.9683 2.2412 18.418 1.68037C18.7354 1.42111 19.1587 1.23593 19.6719 1.12483C20.1904 1.01372 20.7089 0.960811 21.2221 0.960811H21.4179C22.0951 0.64336 22.8624 0.48993 23.7195 0.500512C24.5713 0.511094 25.3277 0.706855 25.9732 1.08251C26.0737 1.13541 26.3172 1.35233 26.7035 1.72269L26.8991 1.78089C27.2219 1.78089 27.5553 1.83381 27.8939 1.93962C28.2325 2.04015 28.55 2.17771 28.841 2.34702C29.2007 2.54807 29.46 2.76499 29.6187 2.98721C29.7827 3.21471 29.8356 3.43693 29.7722 3.65915C29.8039 3.68031 29.8197 3.70148 29.8197 3.71735C29.8197 3.73851 29.8356 3.75439 29.8673 3.77555C30.2906 4.05596 30.5499 4.36283 30.6504 4.70143C30.6768 4.79137 30.6875 4.87603 30.6875 4.97126Z" stroke="#205363"/>
<path d="M52.2426 31.7167C52.2215 32.5262 51.7188 33.214 50.7294 33.7854L48.4279 35.1135L47.6872 35.542L41.3911 31.9072L39.9573 31.0818L38.9309 30.4893L39.2588 30.2988L41.3858 29.066H41.3911L42.0736 28.6745C42.0736 28.6745 42.1265 28.6428 42.1529 28.6269C42.9518 28.1613 43.6079 27.6587 44.1264 27.1296C44.6555 26.5793 45.0312 25.9973 45.2534 25.3783C45.6767 25.5476 46.0788 25.7381 46.4704 25.9444C46.7085 26.0661 46.9517 26.1984 47.1898 26.3359C47.338 26.4153 47.4862 26.5052 47.6343 26.5899C47.7454 26.6534 47.8512 26.7169 47.957 26.7804C50.1051 28.0608 51.449 29.3306 51.994 30.5845C52.0204 30.648 52.0468 30.7115 52.0627 30.7697C52.195 31.103 52.2532 31.4151 52.2426 31.7167Z" stroke="#205363"/>
<path d="M47.6872 46.1237L38.9309 41.071V30.4893L39.9573 31.0818L41.3911 31.9072L47.6872 35.542C47.7083 35.632 47.7189 36.2827 47.7189 37.2245C47.7348 40.2138 47.6872 46.1237 47.6872 46.1237Z" stroke="#205363"/>
<path d="M52.2425 31.7167V42.2879C52.2266 43.1026 51.7239 43.7957 50.7293 44.3671L47.687 46.1237C47.687 46.1237 47.7346 40.2138 47.7188 37.2245C47.7188 36.2827 47.7082 35.632 47.687 35.542L48.4278 35.1135L50.7293 33.7854C51.7186 33.214 52.2213 32.5262 52.2425 31.7167Z" stroke="#205363"/>
<path d="M59.8776 22.7009V33.272C59.8829 34.1503 59.3538 34.8963 58.2904 35.5101L57.3274 36.0656C56.264 36.6794 54.973 36.9862 53.4545 36.9862C53.0313 36.9862 52.6292 36.9598 52.2429 36.9069V31.7165C52.2535 31.415 52.1952 31.1028 52.063 30.7695C52.0471 30.7113 52.0207 30.6478 51.9943 30.5843C51.4493 29.3304 50.1054 28.0606 47.9573 26.7802V23.23C47.9573 23.32 47.9626 23.4099 47.9784 23.4946C47.9837 23.5686 47.9997 23.6374 48.0155 23.7062C48.0367 23.7856 48.0578 23.8649 48.0895 23.9443C48.116 24.0184 48.1479 24.0818 48.1849 24.1506C48.2219 24.23 48.2695 24.3093 48.3225 24.3834C48.3648 24.4469 48.4069 24.5104 48.4599 24.5686C48.571 24.7062 48.6981 24.8384 48.8409 24.9601C49.0472 25.14 49.2906 25.3146 49.571 25.4733C50.3064 25.8966 51.1477 26.177 52.0948 26.304C52.5286 26.3728 52.9783 26.4045 53.4545 26.4045C54.973 26.4045 56.264 26.0977 57.3274 25.4839L58.2904 24.9284C59.3485 24.3199 59.8776 23.5739 59.8776 22.7009Z" stroke="#205363"/>
<path d="M36.0157 28.8065V39.3882L12.6724 25.9124V15.3307L18.7039 18.8121L27.0794 23.6479L36.0157 28.8065Z" stroke="#205363"/>
<path d="M18.7036 10.0505V12.4738C18.5184 12.5055 18.3334 12.5478 18.1535 12.5954C17.2964 12.8018 16.5185 13.114 15.8149 13.5161L15.1641 13.8917L12.6721 15.3308V22.5423L9.75684 24.2247V13.643L12.8943 11.8336C13.6086 11.4209 14.3599 11.077 15.1641 10.8071C15.3069 10.7542 15.4551 10.7066 15.6033 10.659C16.5715 10.3627 17.6031 10.1616 18.7036 10.0505Z" stroke="#205363"/>
<path d="M18.7039 10.0506C17.6034 10.1617 16.5718 10.3627 15.6035 10.659C15.4554 10.7066 15.3072 10.7543 15.1644 10.8072C14.3601 11.077 13.6088 11.4209 12.8946 11.8336L9.7571 13.6431L1.00073 8.59031L4.04827 6.83375C5.46622 6.01366 7.32331 5.77558 9.61954 6.11419C11.466 6.38932 13.3178 6.98189 15.1644 7.89721C15.6141 8.11942 16.0639 8.3628 16.5136 8.62205C16.9368 8.86543 17.3337 9.10352 17.704 9.33632C18.0797 9.56912 18.4129 9.80721 18.7039 10.0506Z" stroke="#205363"/>
<path d="M26.5976 8.41558V12.9393C25.7723 12.7329 24.9468 12.5689 24.1214 12.4525C22.0792 12.1562 20.275 12.1615 18.7036 12.4737V10.0505C18.4126 9.80708 18.0794 9.56899 17.7037 9.33619C17.3334 9.10339 16.9366 8.86531 16.5133 8.62193C16.0636 8.36268 15.6138 8.1193 15.1641 7.89708V4.66968C15.1641 4.81781 15.1958 4.96066 15.2592 5.10351C15.4709 5.60085 15.9683 6.05057 16.746 6.46326L20.5397 8.65367C21.3492 9.12456 22.2802 9.37852 23.3278 9.43143C24.3807 9.47905 25.2432 9.30445 25.9204 8.91822L26.5976 8.41558Z" stroke="#205363"/>
<path d="M28.9629 6.5426V13.6535C28.1746 13.3731 27.3862 13.135 26.5979 12.9392V8.41556C26.6296 8.35736 26.6931 8.32033 26.7883 8.30446C27.5343 8.09811 27.9681 7.96055 28.0951 7.88648C28.3861 7.71717 28.6032 7.51612 28.746 7.28332C28.8942 7.05052 28.9629 6.80185 28.9629 6.5426Z" stroke="#205363"/>
<path d="M30.688 4.97668V14.315C30.3864 14.1881 30.0901 14.0664 29.7885 13.9553C29.5134 13.8442 29.2383 13.7436 28.9631 13.6537V6.54278C29.0266 6.4687 29.0742 6.42109 29.106 6.40521C29.3652 6.33114 29.6086 6.23591 29.8308 6.1248C30.0583 6.01369 30.2488 5.87613 30.4128 5.70682C30.598 5.45815 30.688 5.21477 30.688 4.97668Z" stroke="#205363"/>
<path d="M49.962 12.0244V20.7807C49.8192 20.8442 49.6763 20.913 49.5441 20.9923C49.5282 21.0029 49.5124 21.0082 49.5018 21.0188C48.4648 21.6272 47.9515 22.3627 47.9568 23.2304V25.7118L47.1896 26.3361C46.9515 26.1985 46.7083 26.0663 46.4702 25.9446C46.0787 25.7382 45.6765 25.5478 45.2532 25.3785C45.031 25.9975 44.6553 26.5795 44.1262 27.1297C43.6077 27.6588 42.9517 28.1614 42.1527 28.627C41.8882 28.627 41.6343 28.6112 41.3909 28.5794V29.0662H41.3856V23.9446C41.3909 23.8706 41.3909 23.8018 41.3856 23.7277C41.375 23.2515 41.2481 22.7436 41.0205 22.2092C40.4915 20.9765 39.4438 19.7331 37.883 18.4792H37.8777C36.9359 17.7226 35.809 16.9713 34.4916 16.2094C33.4493 15.6063 32.407 15.0719 31.3647 14.6063V11.9397C31.4282 12.5058 31.8408 13.0084 32.5868 13.437L39.3433 17.3364C39.8195 17.6115 40.3434 17.8073 40.9148 17.9184C41.4333 18.0295 41.9941 18.0718 42.5972 18.0453C42.8565 18.0348 43.0998 18.0083 43.3379 17.9713C44.2532 17.839 45.0098 17.5268 45.5971 17.0401L48.4912 14.6962C49.47 13.8656 49.962 12.982 49.962 12.0244Z" stroke="#205363"/>
<path d="M41.386 23.9445V29.066L39.2591 30.2988L38.9311 30.4892V37.7007L36.0159 39.3885V28.8067L36.8729 28.3094L38.4496 27.3994L39.1533 26.992C40.5977 26.1613 41.3437 25.1402 41.386 23.9445Z" stroke="#205363"/>
<path d="M49.9624 12.0242V11.9131" stroke="#205363"/>
<path d="M52.2532 20.1613C52.2003 20.1666 52.1474 20.1772 52.0945 20.1878V18.627C52.0945 18.627 52.0998 18.6587 52.0998 18.6746L52.2532 20.1613Z" stroke="#205363"/>
<path d="M9.7571 13.643V24.2247L1.00073 19.1719V8.59021L9.7571 13.643Z" stroke="#205363"/>
</svg>
