<svg width="64" height="64" viewBox="0 0 64 64" fill="none" xmlns="http://www.w3.org/2000/svg">
<path d="M62.973 31.1072V41.4298L37.6775 56.0362V45.7136L39.5768 44.6142L43.1897 42.5291L54.0336 36.2685L62.973 31.1072Z" stroke="#205363" stroke-linecap="round" stroke-linejoin="round"/>
<path d="M37.6772 45.7137V56.0362L1.31592 35.0401V24.7175L10.2553 29.8788L32.072 42.4775L35.7056 44.5782L37.6772 45.7137Z" stroke="#205363" stroke-linecap="round" stroke-linejoin="round"/>
<path d="M44.7895 20.6143L44.7688 16.4284L30.2243 8.03101L1.31592 24.7175L10.2553 29.8788L32.072 42.4775L35.7056 44.5781L37.6772 45.7136L39.5766 44.6142L43.1895 42.5291L54.0334 36.2684L62.9728 31.1072L44.7895 20.6143ZM41.2437 35.2568L41.223 35.2465L37.6101 33.1562L37.5895 33.1665L33.9972 35.2413L33.9714 35.2259L30.3585 33.1407L33.9714 31.0555L30.3379 28.9549L33.9508 26.8697L37.5895 28.9704L41.2024 26.8852L44.7791 28.9549L44.8359 28.9859L44.7791 29.0168L41.223 31.071L44.8617 33.1717L41.2437 35.2568Z" stroke="#205363" stroke-linecap="round" stroke-linejoin="round"/>
<path d="M33.9715 31.0555V35.2259L30.3586 33.1407L33.9715 31.0555Z" stroke="#205363" stroke-linecap="round" stroke-linejoin="round"/>
<path d="M37.5895 28.9704V33.1665L33.9972 35.2414L33.9714 35.2259V31.0556L30.3379 28.9549L33.9508 26.8698L37.5895 28.9704Z" stroke="#205363" stroke-linecap="round" stroke-linejoin="round"/>
<path d="M44.8616 33.1717L41.2435 35.2569L41.2229 35.2465V31.071L44.8616 33.1717Z" stroke="#205363" stroke-linecap="round" stroke-linejoin="round"/>
<path d="M44.779 28.9549V29.0169L41.2229 31.0711V35.2465L37.61 33.1562L37.5894 33.1665V28.9704L41.2023 26.8853L44.779 28.9549Z" stroke="#205363" stroke-linecap="round" stroke-linejoin="round"/>
</svg>
