<svg width="64" height="64" viewBox="0 0 64 64" fill="none" xmlns="http://www.w3.org/2000/svg">
<path d="M62.6887 44.5137V48.2236L62.7251 44.5137H62.6887Z" stroke="#205363" stroke-linecap="round" stroke-linejoin="round"/>
<path d="M7.96613 30.3246V40.731L1.53491 40.6895V30.283L7.90889 30.3246H7.96613Z" stroke="#205363" stroke-linecap="round" stroke-linejoin="round"/>
<path d="M1.53492 30.2828V40.6893L1.45166 25.8392V15.4327L1.50889 25.8392L1.53492 30.2828Z" stroke="#205363" stroke-linecap="round" stroke-linejoin="round"/>
<path d="M7.96614 30.3244H7.9089L1.53492 30.2828L1.50889 25.8392L1.45166 15.4327L7.88288 15.4744L7.94532 26.6457L7.96614 30.3244Z" stroke="#205363" stroke-linecap="round" stroke-linejoin="round"/>
<path d="M49.795 30.3714L27.2597 30.3297L27.1816 26.6146L49.7169 26.6562L49.795 30.3714Z" stroke="#205363" stroke-linecap="round" stroke-linejoin="round"/>
<path d="M62.6889 37.8172V48.2237L14.4287 48.1352L14.3506 33.2852H14.4078L14.4287 37.7287L20.8078 37.7391L27.1923 37.7495L27.2547 37.7547L49.7275 37.7912H49.7899L62.6889 37.8172Z" stroke="#205363" stroke-linecap="round" stroke-linejoin="round"/>
<path d="M62.7251 34.1072V44.5137H62.6887V37.8171L62.7251 34.1072Z" stroke="#205363" stroke-linecap="round" stroke-linejoin="round"/>
<path d="M62.7253 34.1072L62.6889 37.8171L49.7899 37.7911H49.7275L27.2547 37.7547L27.1923 37.7495L20.8078 37.7391L14.4287 37.7287L14.4078 33.2851L14.3506 22.8786L20.7818 22.8578L20.8442 34.0292L27.1767 34.0396H27.2547L49.7899 34.0812L62.7253 34.1072Z" stroke="#205363" stroke-linecap="round" stroke-linejoin="round"/>
<path d="M14.4078 33.2852H14.3506V22.8787L14.4078 33.2852Z" stroke="#205363" stroke-linecap="round" stroke-linejoin="round"/>
<path d="M27.2546 30.3297V34.0397H27.1765V26.6146L27.2546 30.3297Z" stroke="#205363" stroke-linecap="round" stroke-linejoin="round"/>
<path d="M49.7899 30.3713V34.0813L27.2546 34.0396V30.3297L49.7899 30.3713Z" stroke="#205363" stroke-linecap="round" stroke-linejoin="round"/>
</svg>
