<svg width="64" height="64" viewBox="0 0 64 64" fill="none" xmlns="http://www.w3.org/2000/svg">
<path d="M27.464 12.9739V19.2L16.6536 12.953L27.464 12.9739Z" stroke="#205363" stroke-linecap="round" stroke-linejoin="round"/>
<path d="M47.5824 13.0087L36.6189 19.3391V12.9878L47.5824 13.0087Z" stroke="#205363" stroke-linecap="round" stroke-linejoin="round"/>
<path d="M53.6421 28.0139H53.5168L53.5586 30.4278L50.2403 32.3478L44.2159 28.8695L40.8211 26.9078L38.1917 25.3913L44.1047 21.9756L53.6072 16.4869L53.6351 21.9965L53.6421 22.8174V28.0139Z" stroke="#205363" stroke-linecap="round" stroke-linejoin="round"/>
<path d="M2.24692 42.6574V56.5704L2.17041 41.8365V27.9235L2.21906 36.633L2.23995 41.8365L2.24692 42.6574Z" stroke="#205363" stroke-linecap="round" stroke-linejoin="round"/>
<path d="M32.2019 28.8418V42.7548L27.7706 45.3148V42.7061L27.7428 37.6766L23.4228 37.6905L16.8628 37.7044L20.1602 35.7983L26.1428 32.3479L32.2019 28.8418Z" stroke="#205363" stroke-linecap="round" stroke-linejoin="round"/>
<path d="M27.7707 42.706V56.6191L2.24731 56.5704V42.6573L10.7342 42.6713L20.2647 42.6921L27.7707 42.706Z" stroke="#205363" stroke-linecap="round" stroke-linejoin="round"/>
<path d="M36.7793 51.6938V56.633L36.7515 51.6938H36.7793Z" stroke="#205363" stroke-linecap="round" stroke-linejoin="round"/>
<path d="M40.8138 37.7879L36.7513 37.7809L36.7791 42.7201V45.3983L32.2017 42.7548V28.8418L38.233 32.327L44.2504 35.8053L47.7148 37.8018L40.8138 37.7879Z" stroke="#205363" stroke-linecap="round" stroke-linejoin="round"/>
<path d="M62.3025 42.7687H62.233L53.5304 42.7548L44.1321 42.7339L36.7791 42.72L36.7513 37.7809L40.8138 37.7878L47.7148 37.8017L44.2504 35.8052L38.233 32.327L32.2017 28.8417L26.1426 32.3478L20.16 35.7983L16.8626 37.7044L23.4225 37.6904L27.7426 37.6765L27.7703 42.7061L20.2643 42.6922L10.7338 42.6713L2.24692 42.6574L2.23996 41.8365L2.21907 36.6331L2.17041 27.9235L10.7269 27.9374L10.7408 30.3652L10.8034 34.24L10.8452 34.2191L14.1286 32.32L20.1182 28.8626L23.5548 26.88L26.1774 25.3635L20.2365 21.9339L10.7408 16.4522L10.8312 21.9131L2.1356 21.8991H2.05908V7.98608L27.4364 8.03479L27.4643 12.9739L16.6538 12.9531L27.4643 19.2L32.1669 21.9131L36.6191 19.3391L47.5826 13.0087L36.6191 12.9878L36.5913 8.04871L62.1147 8.09741L62.1913 22.0104H62.1147L53.6348 21.9965L53.6069 16.487L44.1043 21.9757L38.1913 25.3913L40.8208 26.9078L44.2156 28.8696L50.24 32.3478L53.6278 34.3026L53.5582 30.4278L53.5164 28.0139H53.6417L62.1495 28.0348H62.2261L62.3025 42.7687Z" stroke="#205363" stroke-linecap="round" stroke-linejoin="round"/>
<path d="M10.8452 22.7409V34.2192L10.8034 34.24L10.7408 30.3653L10.7269 27.9374L2.17041 27.9235V36.6331H2.14256L2.05908 21.8992H2.1356L10.8312 21.9131L10.8452 22.7409Z" stroke="#205363" stroke-linecap="round" stroke-linejoin="round"/>
<path d="M14.1284 32.32L10.845 34.2192V30.4279L14.1284 32.32Z" stroke="#205363" stroke-linecap="round" stroke-linejoin="round"/>
<path d="M26.177 25.3635L23.5544 26.88L20.1178 28.8626L14.1282 32.32L10.8448 30.4278V22.7408L10.8309 21.913L10.7405 16.4521L20.2361 21.9339L26.177 25.3635Z" stroke="#205363" stroke-linecap="round" stroke-linejoin="round"/>
<path d="M62.1979 22.8314V28.0348H62.1493L53.6415 28.014V22.8175L53.6345 21.9966L62.1145 22.0105H62.1911L62.1979 22.8314Z" stroke="#205363" stroke-linecap="round" stroke-linejoin="round"/>
<path d="M62.3028 42.7687V56.6817L36.7793 56.633V42.72L44.1323 42.7339L53.5306 42.7548L62.2332 42.7687H62.3028Z" stroke="#205363" stroke-linecap="round" stroke-linejoin="round"/>
</svg>
