<svg width="64" height="64" viewBox="0 0 64 64" fill="none" xmlns="http://www.w3.org/2000/svg">
<path d="M29.1252 32.9066V44.1347L15.0845 52.2414V41.0133L18.5932 38.9866L29.1252 32.9066Z" stroke="#205363" stroke-linecap="round" stroke-linejoin="round"/>
<path d="M15.0845 41.0134V52.2414L6.77563 47.4414V36.2134L8.97645 37.4821L15.0845 41.0134Z" stroke="#205363" stroke-linecap="round" stroke-linejoin="round"/>
<path d="M34.3348 44.0224V55.2505L29.125 44.1347V32.9066L34.3348 44.0224Z" stroke="#205363" stroke-linecap="round" stroke-linejoin="round"/>
<path d="M59.7327 34.1587V45.3867L45.6306 43.1804V42.299L40.4824 31.1495L49.246 32.5194L59.7327 34.1587Z" stroke="#205363" stroke-linecap="round" stroke-linejoin="round"/>
<path d="M45.6305 42.2991V53.5271L34.335 55.2507V44.0226L40.7855 43.0401L42.7729 42.737L45.6305 42.2991Z" stroke="#205363" stroke-linecap="round" stroke-linejoin="round"/>
<path d="M62.7137 27.6351L59.7327 34.1586L49.2458 32.5193L40.4822 31.1495L45.6304 42.2989L42.7728 42.7368L40.7854 43.04L34.3349 44.0225L29.1251 32.9067L18.5931 38.9867L15.0843 41.0133L8.97633 37.4821L6.77552 36.2133L15.0618 31.4302L20.8162 28.1067L1.56567 25.0975L4.54676 18.5797L18.6493 20.7523L21.6304 21.2126L23.8591 21.5551L23.5615 20.9207L18.6493 10.4393L29.9446 8.71582L35.1545 19.8316L49.2514 11.6913L57.5656 16.4856L43.4633 24.6316L45.6865 24.9797L55.4717 26.5067L57.5656 26.8323L62.7137 27.6351Z" stroke="#205363" stroke-linecap="round" stroke-linejoin="round"/>
<path d="M57.5656 16.4857V26.8324L55.4715 26.5068L45.6863 24.9798L43.4631 24.6317L57.5656 16.4857Z" stroke="#205363" stroke-linecap="round" stroke-linejoin="round"/>
<path d="M23.859 21.5552L21.6302 21.2128L18.6492 20.7524V10.4395L23.5615 20.9209L23.859 21.5552Z" stroke="#205363" stroke-linecap="round" stroke-linejoin="round"/>
<path d="M20.8162 28.1068L15.0618 31.4303L6.77552 36.2134V37.1398L1.56567 36.3257V25.0977L20.8162 28.1068Z" stroke="#205363" stroke-linecap="round" stroke-linejoin="round"/>
<path d="M62.7137 27.6351V38.8632L59.7327 45.3867V34.1586L62.7137 27.6351Z" stroke="#205363" stroke-linecap="round" stroke-linejoin="round"/>
</svg>
