<svg width="64" height="64" viewBox="0 0 64 64" fill="none" xmlns="http://www.w3.org/2000/svg">
<path d="M62.5103 29.8152V40.8497L48.717 48.811C42.9901 52.1214 36.066 54.1352 27.9391 54.8635C19.8177 55.5918 12.4577 54.8138 5.87012 52.5352V41.5007C11.0674 43.2993 16.7446 44.1601 22.8963 44.0828C24.1929 44.0718 25.5115 44.0166 26.8522 43.9173C27.2108 43.8897 27.5749 43.8621 27.9391 43.829C36.066 43.1008 42.9901 41.0869 48.717 37.7766L56.5186 33.2746L62.5103 29.8152Z" stroke="#205363" stroke-linecap="round" stroke-linejoin="round"/>
<path d="M5.87039 41.5008V52.5353C2.72557 49.5064 1.23039 46.2015 1.38487 42.6098V32.5243C1.44556 34.2071 1.88688 35.8236 2.70343 37.3795C3.44274 38.8084 4.50211 40.1822 5.87039 41.5008Z" stroke="#205363" stroke-linecap="round" stroke-linejoin="round"/>
<path d="M51.0951 15.3876L26.1075 8.79443L12.3144 16.7613C6.58202 20.0661 3.08959 24.0661 1.83166 28.7558C1.48408 30.0468 1.33514 31.2993 1.3848 32.5241C1.44549 34.2069 1.88681 35.8234 2.70336 37.3792C3.44267 38.8082 4.50205 40.182 5.8703 41.5006C11.0675 43.2992 16.7448 44.16 22.8965 44.0827C24.1931 44.0717 25.5117 44.0165 26.8524 43.9172C27.211 43.8896 27.5751 43.862 27.9393 43.8289C36.0662 43.1006 42.9903 41.0868 48.7172 37.7765L56.5186 33.2744L62.5103 29.8151L51.0951 15.3876ZM37.5558 28.4579C36.6896 28.96 35.68 29.291 34.5269 29.451C33.3737 29.6165 32.2317 29.5834 31.0951 29.3627L26.8855 32.8551L25.1089 34.3282L18.2841 30.3889L26.8855 26.9351C26.5048 26.2785 26.4551 25.6165 26.731 24.9544C27.0124 24.2868 27.5862 23.7075 28.4524 23.2054C29.6937 22.4882 31.2054 22.1296 32.982 22.1351C34.7585 22.1351 36.2758 22.4993 37.5282 23.2221C38.7751 23.9448 39.4041 24.8165 39.4096 25.8427C39.4151 26.8689 38.7972 27.7407 37.5558 28.4579Z" stroke="#205363" stroke-linecap="round" stroke-linejoin="round"/>
<path d="M39.4094 25.8428C39.4149 26.869 38.797 27.7407 37.5556 28.458C36.6894 28.96 35.6798 29.2911 34.5267 29.4511C33.3736 29.6166 32.2316 29.5835 31.095 29.3628L26.8853 32.8552V26.9352C26.5047 26.2786 26.4549 25.6166 26.7308 24.9545C27.0122 24.2869 27.586 23.7076 28.4522 23.2055C29.6936 22.4883 31.2053 22.1297 32.9818 22.1352C34.7584 22.1352 36.2756 22.4993 37.528 23.2221C38.7749 23.9448 39.4039 24.8166 39.4094 25.8428Z" stroke="#205363" stroke-linecap="round" stroke-linejoin="round"/>
<path d="M26.8856 26.9351V32.8551L25.109 34.3282L18.2842 30.3889L26.8856 26.9351Z" stroke="#205363" stroke-linecap="round" stroke-linejoin="round"/>
<path d="M1.38477 42.8027V42.6096" stroke="#205363" stroke-linecap="round" stroke-linejoin="round"/>
</svg>
