<svg width="64" height="64" viewBox="0 0 64 64" fill="none" xmlns="http://www.w3.org/2000/svg">
<path d="M53.9434 32.0397C53.9677 32.0701 53.9982 32.1067 54.0287 32.1433V31.936C53.9982 31.9726 53.9738 32.0031 53.9434 32.0397Z" stroke="#205363" stroke-linecap="round" stroke-linejoin="round"/>
<path d="M53.9434 32.0397C53.9677 32.0701 53.9982 32.1067 54.0287 32.1433V31.936C53.9982 31.9726 53.9738 32.0031 53.9434 32.0397Z" stroke="#205363" stroke-linecap="round" stroke-linejoin="round"/>
<path d="M60.0631 19.3554C58.5697 17.1977 56.3389 15.2655 53.3705 13.5527C50.4021 11.8339 47.0497 10.5478 43.3195 9.68836C39.5892 8.82893 35.7979 8.39007 31.9457 8.38398C28.0936 8.37788 24.3084 8.79845 20.5842 9.64568C16.8661 10.4929 13.5259 11.7668 10.5758 13.4735C7.62575 15.1741 5.41926 17.1002 3.9503 19.2518C2.48135 21.4034 1.74992 23.5855 1.76211 25.8103C1.7743 27.8583 2.4143 29.8697 3.67601 31.8628C3.78572 32.0335 3.89543 32.2103 4.01734 32.3809C4.99867 33.7889 6.29089 35.1055 7.90613 36.3307C8.55832 36.8244 9.26537 37.312 10.0273 37.7752C10.137 37.8423 10.2467 37.9093 10.3625 37.9825C10.4783 38.0495 10.5941 38.1166 10.7099 38.1836C10.7282 38.1958 10.7465 38.2019 10.7648 38.2141C13.721 39.9147 17.0551 41.1886 20.761 42.0419C24.4913 42.9074 28.2825 43.3402 32.1347 43.3463C35.9869 43.3463 39.772 42.9318 43.4962 42.0846C47.2204 41.2373 50.5545 39.9634 53.5046 38.2567C54.4737 37.7021 55.3636 37.1169 56.1743 36.5074C57.8261 35.264 59.1488 33.923 60.1362 32.4785C60.2276 32.3444 60.3191 32.2042 60.4044 32.064C61.6845 30.0708 62.3184 28.0411 62.3184 25.9748V25.92C62.3062 23.6952 61.5565 21.507 60.0631 19.3554ZM56.3267 26.0846C56.3267 26.1882 56.3206 26.2918 56.3145 26.4015C56.3084 26.5966 56.2901 26.7916 56.2657 26.9867C56.2657 27.0293 56.2657 27.072 56.2536 27.1147C56.2292 27.2731 56.2048 27.4377 56.1743 27.5962C56.156 27.6876 56.1377 27.7729 56.1195 27.8644C56.0037 28.3825 55.8391 28.8884 55.6257 29.3821C55.5831 29.4918 55.5343 29.5954 55.4856 29.699C55.2905 30.1135 55.065 30.5097 54.8029 30.9059C54.7236 31.0278 54.6383 31.1497 54.5468 31.2716C54.3884 31.4971 54.2117 31.7166 54.0288 31.936V32.1432C53.9983 32.1067 53.9678 32.0701 53.9435 32.0396C53.9313 32.0518 53.9251 32.0579 53.919 32.0701C53.7971 32.2042 53.6692 32.3444 53.5473 32.4724C52.5903 33.4903 51.3895 34.4411 49.9388 35.3432C49.823 35.4225 49.7012 35.4956 49.5854 35.5627C49.4635 35.6358 49.3415 35.7089 49.2135 35.7821C48.7564 36.0442 48.2932 36.2941 47.8177 36.5318C47.7934 36.544 47.769 36.5623 47.7385 36.5684C47.5557 36.6659 47.3666 36.7512 47.1777 36.8427C46.7266 37.056 46.2696 37.2571 45.8002 37.4461C45.6539 37.507 45.4955 37.5741 45.3431 37.6289C45.3309 37.6289 45.3126 37.6411 45.3004 37.6472C45.0322 37.7508 44.764 37.8545 44.4897 37.9459C44.2885 38.019 44.0874 38.0861 43.8802 38.1531C43.6973 38.2141 43.5145 38.275 43.3316 38.3299C42.393 38.6225 41.4299 38.8724 40.4303 39.0796C40.2657 39.1162 40.0951 39.1467 39.9244 39.1771C39.4246 39.2807 38.9065 39.3722 38.3823 39.4453C38.2117 39.4758 38.0349 39.5002 37.8581 39.5185C37.6143 39.555 37.3644 39.5855 37.1145 39.616C37.0414 39.6282 36.9621 39.6343 36.8829 39.6404C36.8402 39.6465 36.7975 39.6526 36.7548 39.6526C36.444 39.6891 36.1332 39.7196 35.8162 39.744C35.4322 39.7806 35.0482 39.8049 34.6581 39.8232C34.6216 39.8293 34.5849 39.8293 34.5484 39.8293C34.1765 39.8476 33.8048 39.8659 33.4269 39.872C32.9941 39.8842 32.5553 39.8903 32.1164 39.8903H32.0677C31.6715 39.8903 31.2753 39.8842 30.8852 39.872C30.5134 39.8598 30.1477 39.8476 29.7819 39.8293C29.2882 39.7988 28.7945 39.7684 28.313 39.7196C28.0082 39.7013 27.7156 39.6647 27.423 39.6343C26.6124 39.5428 25.82 39.4331 25.0459 39.2929C24.6741 39.232 24.3084 39.1588 23.9427 39.0796C23.577 39.0065 23.2174 38.9211 22.8577 38.8358C22.5408 38.7566 22.2299 38.6773 21.919 38.592C21.6813 38.5249 21.4436 38.4579 21.212 38.3847C20.9986 38.3238 20.7915 38.2628 20.5903 38.1958C20.0661 38.0312 19.548 37.8484 19.0421 37.6472C18.8105 37.5619 18.5789 37.4705 18.3534 37.3729C18.3351 37.3729 18.3167 37.3607 18.2984 37.3486C18.14 37.2876 17.9815 37.2206 17.823 37.1535C17.6158 37.0682 17.4086 36.9706 17.2075 36.8731C17.0185 36.7878 16.8295 36.6964 16.6405 36.6049C16.0737 36.3307 15.5191 36.032 14.9766 35.7211C14.7145 35.5687 14.4585 35.4164 14.2147 35.2579H14.2086C13.9587 35.1055 13.721 34.947 13.4894 34.7886C13.4223 34.7459 13.3553 34.7032 13.2943 34.6545C13.1297 34.5447 12.9712 34.4289 12.8127 34.3131C12.5933 34.1546 12.38 33.9901 12.1728 33.8255C11.8254 33.5451 11.4901 33.2586 11.1854 32.9661C11.1122 32.899 11.0452 32.832 10.9781 32.7649C10.9598 32.7527 10.9477 32.7406 10.9355 32.7223C10.8197 32.6065 10.7038 32.4967 10.5941 32.3809C10.4357 32.2164 10.2894 32.0518 10.1431 31.8811C10.1065 31.8385 10.0638 31.7897 10.0273 31.7409C10.0029 31.7166 9.98461 31.6922 9.96023 31.6617C9.84442 31.5215 9.7347 31.3752 9.62499 31.2289C9.55794 31.1436 9.49693 31.0583 9.44207 30.9729C9.38112 30.8876 9.32632 30.8023 9.26537 30.7108C9.14956 30.5402 9.03985 30.3634 8.94232 30.1867C8.85089 30.0282 8.76556 29.8636 8.68632 29.7051C8.53394 29.4126 8.40594 29.1139 8.29623 28.8091C8.26575 28.7238 8.23521 28.6324 8.20474 28.547C8.14378 28.3581 8.08289 28.1752 8.04023 27.9863C8.02804 27.9619 8.02194 27.9436 8.02194 27.9192C7.97927 27.7547 7.93661 27.584 7.91223 27.4133C7.88784 27.2853 7.86346 27.1512 7.84518 27.0232C7.8208 26.8952 7.80861 26.7611 7.79642 26.627C7.78423 26.5356 7.77813 26.4381 7.77204 26.3467C7.75985 26.1699 7.75375 25.9992 7.75375 25.8225C7.73546 21.9946 10.1065 18.7032 14.8669 15.9543C19.6334 13.1992 25.3324 11.8339 31.964 11.8461C38.6017 11.8583 44.313 13.248 49.1038 16.0152C53.9008 18.7825 56.3084 22.08 56.3267 25.9078V26.0846Z" stroke="#205363" stroke-linecap="round" stroke-linejoin="round"/>
<path d="M10.0273 25.8652V25.9932C10.0761 25.9567 10.131 25.9262 10.1797 25.8957L10.0273 25.8652Z" stroke="#205363" stroke-linecap="round" stroke-linejoin="round"/>
<path d="M54.029 25.6337V31.9361C53.9985 31.9727 53.9742 32.0032 53.9437 32.0398C53.9315 32.052 53.9254 32.058 53.9193 32.0702C53.7974 32.2043 53.6694 32.3445 53.5475 32.4725C52.5905 33.4904 51.3898 34.4413 49.9391 35.3434C49.8233 35.4226 49.7014 35.4958 49.5856 35.5628C49.4637 35.636 49.3418 35.7091 49.2138 35.7822C48.7566 36.0443 48.2934 36.2942 47.818 36.532C47.7936 36.5441 47.7692 36.5624 47.7387 36.5685C47.5559 36.666 47.3669 36.7514 47.178 36.8428C46.7269 37.0561 46.2698 37.2573 45.8004 37.4462C45.6542 37.5072 45.4957 37.5742 45.3433 37.6291C45.3311 37.6291 45.3128 37.6413 45.3006 37.6474C45.0324 37.751 44.7643 37.8546 44.49 37.946C44.2888 38.0192 44.0877 38.0862 43.8804 38.1533C43.6976 38.2142 43.5147 38.2752 43.3319 38.33C42.3932 38.6226 41.4302 38.8725 40.4305 39.0798C40.266 39.1163 40.0953 39.1468 39.9246 39.1773C39.4248 39.2809 38.9067 39.3723 38.3825 39.4455C38.2119 39.476 38.0351 39.5003 37.8583 39.5186C37.6145 39.5552 37.3646 39.5857 37.1147 39.6161C37.0416 39.6283 36.9623 39.6344 36.8831 39.6405C36.8404 39.6466 36.7978 39.6527 36.7551 39.6527C36.4443 39.6893 36.1334 39.7198 35.8164 39.7441C35.4324 39.7746 35.0484 39.8051 34.6583 39.8234C34.6218 39.8295 34.5852 39.8295 34.5486 39.8295C34.1768 39.8478 33.805 39.866 33.4271 39.8721C32.9943 39.8843 32.5555 39.8904 32.1166 39.8904H32.0679V30.6866L47.1963 27.2062H47.2023L53.4195 25.7739L53.4683 25.7617L54.029 25.6337Z" stroke="#205363" stroke-linecap="round" stroke-linejoin="round"/>
<path d="M32.0677 30.6864V39.8902C31.6715 39.8902 31.2753 39.8841 30.8853 39.8719C30.5134 39.8597 30.1477 39.8475 29.782 39.8292C29.2883 39.7987 28.7946 39.7683 28.3131 39.7195C28.0144 39.6951 27.7157 39.6646 27.4231 39.6342C26.6124 39.5427 25.8201 39.433 25.046 39.2928C24.6742 39.2258 24.3024 39.1587 23.9428 39.0795C23.5771 39.0064 23.2174 38.921 22.8578 38.8357C22.5409 38.7565 22.23 38.6772 21.9192 38.5919C21.6814 38.5248 21.4437 38.4578 21.212 38.3846C20.9987 38.3237 20.7915 38.2627 20.5904 38.1957C20.0662 38.0311 19.548 37.8483 19.0421 37.6471C18.8105 37.5618 18.579 37.4704 18.3534 37.3728C18.3352 37.3728 18.3168 37.3606 18.2985 37.3485C18.14 37.2875 17.9816 37.2205 17.8231 37.1534C17.6159 37.0681 17.4087 36.9706 17.2075 36.873C17.0186 36.7877 16.8296 36.6963 16.6406 36.6048C16.0738 36.3306 15.5192 36.0319 14.9767 35.721C14.7146 35.5687 14.4586 35.4163 14.2148 35.2578H14.2087C13.9588 35.0993 13.7211 34.9469 13.4894 34.7885C13.4224 34.7458 13.3553 34.7031 13.2944 34.6544C13.1298 34.5447 12.9713 34.4288 12.8128 34.313C12.5934 34.1546 12.3801 33.99 12.1729 33.8254C11.8254 33.545 11.4902 33.2586 11.1854 32.966C11.1123 32.8989 11.0452 32.8319 10.9782 32.7648C10.9599 32.7527 10.9477 32.7405 10.9355 32.7222C10.8197 32.6064 10.7039 32.4967 10.5942 32.3808C10.4357 32.2163 10.2894 32.0517 10.1432 31.881C10.1066 31.8384 10.0639 31.7896 10.0273 31.7408V25.993C10.0761 25.9565 10.131 25.926 10.1797 25.8955L10.6247 25.993L16.4944 27.2791L32.0677 30.6864Z" stroke="#205363" stroke-linecap="round" stroke-linejoin="round"/>
<path d="M56.3267 25.908V26.0848C56.3267 26.1884 56.3206 26.292 56.3145 26.4017C56.3084 26.5968 56.2901 26.7918 56.2658 26.9869C56.2658 27.0295 56.2658 27.0722 56.2536 27.1149C56.2292 27.2733 56.2048 27.4379 56.1743 27.5964C56.156 27.6878 56.1378 27.7731 56.1195 27.8646C56.0037 28.3827 55.8391 28.8886 55.6258 29.3823C55.5831 29.492 55.5343 29.5956 55.4856 29.6992C55.2905 30.1137 55.065 30.5099 54.8029 30.9061C54.7237 31.028 54.6383 31.1499 54.5469 31.2718C54.3884 31.4973 54.2117 31.7168 54.0288 31.9362V25.6337L53.1999 25.463L52.6635 25.3533H52.6513L32.0128 21.0501L10.6002 25.7373L10.3747 25.7861H10.3625L10.0273 25.8653V31.7411C10.0273 31.7411 9.98462 31.6924 9.96024 31.6619C9.84443 31.5217 9.73472 31.3754 9.62501 31.2291C9.55796 31.1438 9.49701 31.0585 9.44215 30.9731C9.3812 30.8878 9.32634 30.8025 9.26539 30.711C9.14958 30.5404 9.03986 30.3636 8.94234 30.1869C8.85091 30.0284 8.76558 29.8638 8.68634 29.7053C8.53396 29.4128 8.40596 29.1141 8.29624 28.8093C8.26577 28.724 8.23529 28.6326 8.20482 28.5472C8.14386 28.3644 8.08901 28.1754 8.04024 27.9865C8.02805 27.9621 8.02196 27.9438 8.02196 27.9194C7.97929 27.7488 7.94272 27.5842 7.91224 27.4135C7.88786 27.2855 7.86348 27.1514 7.8452 27.0234C7.82691 26.8893 7.80862 26.7613 7.79643 26.6272C7.78424 26.5358 7.77815 26.4383 7.77205 26.3469C7.75986 26.1701 7.75377 25.9994 7.75377 25.8227C7.73548 21.9949 10.1065 18.7034 14.8669 15.9545C19.6334 13.1994 25.3324 11.8341 31.9641 11.8463C38.6018 11.8585 44.313 13.2482 49.1039 16.0154C53.9008 18.7827 56.3084 22.0802 56.3267 25.908Z" stroke="#205363" stroke-linecap="round" stroke-linejoin="round"/>
<path d="M10.0273 25.8651L10.1797 25.8956C10.2407 25.859 10.3016 25.8225 10.3626 25.792L10.0273 25.8651Z" stroke="#205363" stroke-linecap="round" stroke-linejoin="round"/>
<path d="M53.1999 25.4629L52.6635 25.3533H52.6513L32.0128 21.05L10.6003 25.7373L10.3747 25.786H10.3625C10.3016 25.8226 10.2406 25.8592 10.1797 25.8958L10.6246 25.9933L16.4944 27.2794L32.0677 30.6866L47.1961 27.2062H47.2022L53.4193 25.7739L53.4681 25.7617L54.0288 25.6337L53.1999 25.4629ZM34.1888 27.1026C33.5854 27.4561 32.8723 27.6267 32.0494 27.6267C31.2265 27.6267 30.5195 27.45 29.91 27.0965C29.3005 26.7491 28.9957 26.3346 28.9896 25.8592C28.9896 25.3899 29.2882 24.9754 29.8977 24.628C30.5012 24.2805 31.2143 24.1038 32.0311 24.1038C32.8539 24.1038 33.5671 24.2805 34.1766 24.634C34.7801 24.9876 35.0909 25.396 35.0909 25.8714C35.0909 26.3468 34.7923 26.7551 34.1888 27.1026Z" stroke="#205363" stroke-linecap="round" stroke-linejoin="round"/>
<path d="M35.0907 25.8711C35.0907 26.3466 34.7919 26.7549 34.1885 27.1024C33.5851 27.4559 32.872 27.6266 32.0491 27.6266C31.2263 27.6266 30.5192 27.4498 29.9097 27.0963C29.3002 26.7488 28.9954 26.3344 28.9893 25.8589C28.9893 25.3896 29.2879 24.9751 29.8974 24.6277C30.5009 24.2803 31.214 24.1035 32.0308 24.1035C32.8536 24.1035 33.5668 24.2803 34.1764 24.6338C34.7798 24.9873 35.0907 25.3957 35.0907 25.8711Z" stroke="#205363" stroke-linecap="round" stroke-linejoin="round"/>
<path d="M62.3184 25.975V38.1106C62.3306 40.3354 61.6052 42.5236 60.136 44.6691C58.6671 46.8207 56.4545 48.7468 53.5044 50.4474C50.5543 52.154 47.2202 53.4279 43.496 54.2752C39.7719 55.1224 35.9867 55.543 32.1345 55.5369C28.2823 55.5308 24.4911 55.098 20.7608 54.2325C17.0305 53.3731 13.6781 52.087 10.7098 50.3742C7.74138 48.6554 5.51053 46.7232 4.01719 44.5716C2.52996 42.4139 1.77415 40.2257 1.76196 38.0009V25.8104C1.77415 27.8584 2.41415 29.8699 3.67586 31.863C3.78558 32.0337 3.89529 32.2104 4.01719 32.3811C4.99853 33.7891 6.29071 35.1057 7.90595 36.3308C8.55814 36.8245 9.26519 37.3121 10.0271 37.7754C10.1368 37.8424 10.2465 37.9095 10.3623 37.9826C10.4781 38.0497 10.594 38.1167 10.7098 38.1838C10.728 38.1959 10.7463 38.202 10.7646 38.2142C13.7208 39.9148 17.0549 41.1887 20.7608 42.042C24.4911 42.9076 28.2823 43.3403 32.1345 43.3464C35.9867 43.3464 39.7719 42.9319 43.496 42.0847C47.2202 41.2375 50.5543 39.9636 53.5044 38.2569C54.4736 37.7022 55.3635 37.1171 56.1741 36.5076C57.8259 35.2641 59.1486 33.9232 60.136 32.4786C60.2275 32.3445 60.3189 32.2043 60.4042 32.0641C61.6845 30.071 62.3184 28.0413 62.3184 25.975Z" stroke="#205363" stroke-linecap="round" stroke-linejoin="round"/>
</svg>
