<svg width="64" height="64" viewBox="0 0 64 64" fill="none" xmlns="http://www.w3.org/2000/svg">
<path d="M59.4162 34.6003C59.4565 34.6465 59.4911 34.6926 59.5257 34.7387C59.5372 34.7272 59.543 34.7214 59.5545 34.7157C59.5084 34.6753 59.4623 34.6349 59.4162 34.6003ZM29.3994 47.3946L29.4456 47.4234V47.3657L29.3994 47.3946Z" stroke="#205363" stroke-linecap="round" stroke-linejoin="round"/>
<path d="M21.1428 50.4965C21.0679 51.0443 21.0679 51.6035 21.1428 52.1628C19.7014 52.1167 17.8391 52.0417 15.5558 51.9437C13.2726 51.8457 11.2949 51.7765 9.61131 51.7246L3.00952 51.5055V39.974L9.61131 40.1931C11.2949 40.245 13.2726 40.3142 15.5558 40.4122C17.8391 40.5102 19.7014 40.5852 21.1428 40.6313V50.4965Z" stroke="#205363" stroke-linecap="round" stroke-linejoin="round"/>
<path d="M62.4318 39.6224C62.6855 42.142 61.7169 44.3561 59.5259 46.2703V34.7388C59.5259 34.7388 59.5432 34.7215 59.5547 34.7157C61.4286 33.0725 62.3972 31.1986 62.4722 29.0999L62.4318 39.6224Z" stroke="#205363" stroke-linecap="round" stroke-linejoin="round"/>
<path d="M59.5259 34.7387V46.2703C59.0877 45.6937 58.5745 45.1517 57.9864 44.6559C57.4039 44.16 56.7754 43.7103 56.0893 43.3182C55.236 42.8223 54.3423 42.3784 53.414 41.9921V35.9092L48.5938 33.1243L41.4154 37.2699L34.1852 33.1013L29.3996 35.8631V42.0209C28.5578 42.3784 27.7563 42.782 26.978 43.2317C24.9023 44.431 23.3571 45.809 22.348 47.3658C21.6792 48.3921 21.2756 49.4299 21.143 50.4966V40.6314C20.9297 38.9881 21.3333 37.391 22.348 35.8342C23.3571 34.2775 24.9023 32.8995 26.978 31.7002C30.9217 29.4169 35.6612 28.2696 41.179 28.2407H41.5135C47.1754 28.2638 52.036 29.4458 56.0893 31.7867C56.7754 32.1787 57.4039 32.6285 57.9864 33.1243C58.5284 33.5798 59.0012 34.0757 59.4163 34.6004C59.4567 34.6465 59.4913 34.6926 59.5259 34.7387Z" stroke="#205363" stroke-linecap="round" stroke-linejoin="round"/>
<path d="M53.4138 44.2003V44.2465L53.4542 44.2234L53.4138 44.2003ZM59.4162 34.6003C59.4566 34.6465 59.4912 34.6926 59.5258 34.7387C59.5373 34.7272 59.5431 34.7214 59.5546 34.7157C59.5085 34.6753 59.4623 34.6349 59.4162 34.6003Z" stroke="#205363" stroke-linecap="round" stroke-linejoin="round"/>
<path d="M62.4721 28.7654V29.0998C62.3971 31.1985 61.4285 33.0724 59.5546 34.7157C59.5085 34.6753 59.4624 34.6349 59.4162 34.6003C59.0011 34.0757 58.5283 33.5798 57.9863 33.1243C57.4039 32.6285 56.7754 32.1787 56.0893 31.7867C52.0359 29.4458 47.1754 28.2638 41.5134 28.2407H41.179C35.6612 28.2695 30.9217 29.4169 26.9779 31.7002C24.9022 32.8994 23.357 34.2775 22.348 35.8342C21.3332 37.391 20.9296 38.9881 21.143 40.6313C19.7015 40.5852 17.8392 40.5103 15.5559 40.4122C13.2727 40.3142 11.295 40.245 9.61143 40.1931L3.00962 39.974L2.17934 31.6194C2.12745 31.0429 2.07556 30.4836 2.0352 29.9358C1.82763 27.4623 1.71232 25.254 1.68925 23.3167C1.65466 20.9528 1.86224 18.8598 2.31197 17.0494C2.7617 15.2331 3.51701 13.6648 4.56638 12.3387C5.62152 11.0126 7.06873 9.81909 8.90224 8.75819C12.65 6.59026 17.0377 5.51783 22.0597 5.54089C27.0817 5.56395 31.481 6.65945 35.2576 8.83891C37.3448 10.044 38.9015 11.4393 39.9278 13.0249C40.9599 14.6104 41.3577 16.2594 41.1271 17.9661C44.0907 17.8335 46.939 18.0641 49.6835 18.658C52.428 19.2519 54.8496 20.1513 56.9368 21.3564C60.3445 23.3283 62.178 25.5712 62.4317 28.0908C62.4548 28.3157 62.4663 28.5463 62.4721 28.7654Z" stroke="#205363" stroke-linecap="round" stroke-linejoin="round"/>
<path d="M21.1431 52.1629V50.4966" stroke="#205363" stroke-linecap="round" stroke-linejoin="round"/>
<path d="M46.3047 40.101L53.4139 44.2004V44.2465L50.6521 45.8437L48.6687 46.991L46.6103 45.8033L41.4442 42.8166L36.2434 45.8206L34.26 46.9622L32.2073 45.7745L29.4456 44.1831L36.5433 40.0837L36.6239 40.0375L29.3994 35.8631L34.1851 33.1013L41.4153 37.27L48.5937 33.1244L53.4139 35.9092L46.2297 40.0548L46.3047 40.101Z" stroke="#205363" stroke-linecap="round" stroke-linejoin="round"/>
<path d="M36.6239 40.0375L36.5433 40.0835L29.4456 44.183V47.3657L29.3994 47.3945V35.863L36.6239 40.0375Z" stroke="#205363" stroke-linecap="round" stroke-linejoin="round"/>
<path d="M34.26 46.9622V58.4937L29.4456 55.7146V44.1831L32.2074 45.7745L34.26 46.9622Z" stroke="#205363" stroke-linecap="round" stroke-linejoin="round"/>
<path d="M41.4442 42.8165V54.3481L34.26 58.4936V46.9621L36.2434 45.8205L41.4442 42.8165Z" stroke="#205363" stroke-linecap="round" stroke-linejoin="round"/>
<path d="M48.6688 46.9909V58.5225L41.4443 54.3481V42.8165L46.6105 45.8032L48.6688 46.9909Z" stroke="#205363" stroke-linecap="round" stroke-linejoin="round"/>
<path d="M53.4543 44.2234V55.7549L48.6687 58.5225V46.991L50.6521 45.8436L53.4139 44.2465L53.4543 44.2234Z" stroke="#205363" stroke-linecap="round" stroke-linejoin="round"/>
<path d="M53.4139 35.9092V44.2004L46.3047 40.1009L46.2297 40.0548L53.4139 35.9092Z" stroke="#205363" stroke-linecap="round" stroke-linejoin="round"/>
<path d="M3.00958 39.9741V51.5056L2.1793 43.151C1.88525 39.9856 1.71804 37.218 1.68921 34.8483V23.3168C1.71227 25.2541 1.82759 27.4624 2.03516 29.9359C2.07552 30.4836 2.12741 31.0429 2.1793 31.6195L3.00958 39.9741Z" stroke="#205363" stroke-linecap="round" stroke-linejoin="round"/>
</svg>
