<svg width="64" height="64" viewBox="0 0 64 64" fill="none" xmlns="http://www.w3.org/2000/svg">
<path d="M62.5016 30.8245V30.8571C62.5016 32.6922 61.7441 34.3771 60.2355 35.9118C59.7392 36.4212 59.1645 36.9045 58.5049 37.3747C58.0282 37.7208 57.5057 38.0538 56.9375 38.3804C55.1155 39.4383 53.0257 40.2873 50.6616 40.9338C48.2975 41.5869 45.3065 42.0636 41.6624 42.3641C38.0314 42.671 33.5906 42.8147 28.3465 42.8081C23.1024 42.7951 16.6633 42.671 9.02897 42.4294L2.4722 42.2073L2.09344 38.4196C1.96935 37.1592 1.86486 35.9575 1.77996 34.8081C1.72772 34.1616 1.68854 33.5347 1.64935 32.9208C1.51874 30.831 1.4469 28.9436 1.43384 27.2718V27.0106C1.43384 24.0914 1.68854 21.6163 2.19793 19.5787C2.72691 17.4759 3.54977 15.7518 4.67303 14.3869C5.80283 13.022 7.27876 11.8138 9.09427 10.7624C12.8233 8.61384 17.1857 7.54282 22.1947 7.54935C27.1971 7.56241 31.5792 8.64649 35.3277 10.8081C37.3979 12.0032 38.9392 13.4008 39.9384 14.9877C40.9375 16.5681 41.3228 18.2073 41.1008 19.9053C44.0396 19.7747 46.8804 19.9967 49.6298 20.5779C52.3726 21.1526 54.7824 22.0408 56.8526 23.2424C60.6012 25.4041 62.4886 27.9314 62.5016 30.8245Z" stroke="#205363" stroke-linecap="round" stroke-linejoin="round"/>
<path d="M62.5015 30.8572V43.9184C62.5015 45.7535 61.744 47.4384 60.2354 48.9731C59.3799 49.8482 58.2828 50.6645 56.9375 51.4417C55.1154 52.4996 53.0256 53.3486 50.6615 53.9951C48.2975 54.6482 45.3064 55.1249 41.6624 55.4253C38.0313 55.7323 33.5905 55.876 28.3464 55.8694C23.1024 55.8564 16.6632 55.7323 9.02889 55.4906L2.47217 55.2686V42.2074L9.02889 42.4294C16.6632 42.6711 23.1024 42.7951 28.3464 42.8082C33.5905 42.8147 38.0313 42.6711 41.6624 42.3641C45.3064 42.0637 48.2975 41.587 50.6615 40.9339C53.0256 40.2874 55.1154 39.4384 56.9375 38.3804C57.5056 38.0539 58.0281 37.7209 58.5048 37.3747C59.1644 36.9045 59.7391 36.4213 60.2354 35.9119C61.744 34.3772 62.5015 32.6923 62.5015 30.8572Z" stroke="#205363" stroke-linecap="round" stroke-linejoin="round"/>
<path d="M2.4722 42.2074V55.2686L2.09344 51.4808C1.90405 49.5086 1.75384 47.68 1.64935 45.9821C1.51874 43.8923 1.4469 42.0049 1.43384 40.3331V27.2719C1.4469 28.9437 1.51874 30.831 1.64935 32.9208C1.68854 33.5347 1.72772 34.1616 1.77996 34.8082C1.86486 35.9576 1.96935 37.1592 2.09344 38.4196L2.4722 42.2074Z" stroke="#205363" stroke-linecap="round" stroke-linejoin="round"/>
</svg>
