<svg width="64" height="64" viewBox="0 0 64 64" fill="none" xmlns="http://www.w3.org/2000/svg">
<path d="M2.7011 39.9121V51.3407L1.87254 42.9635C1.5754 39.7921 1.40967 37.015 1.3811 34.6435V23.215C1.40396 25.1293 1.51825 27.3064 1.71825 29.7464C1.76396 30.3292 1.8154 30.9235 1.87254 31.535L2.7011 39.9121Z" stroke="#205363" stroke-linecap="round" stroke-linejoin="round"/>
<path d="M58.9067 34.1178C59.0667 34.2949 59.2153 34.4777 59.3582 34.6606C59.3925 34.632 59.4267 34.5977 59.461 34.5692C59.2839 34.4206 59.101 34.2664 58.9067 34.1178Z" stroke="#205363" stroke-linecap="round" stroke-linejoin="round"/>
<path d="M53.2722 44.1692V55.5978L48.4722 58.3693V46.9407L53.2722 44.1692Z" stroke="#205363" stroke-linecap="round" stroke-linejoin="round"/>
<path d="M59.3583 34.6607V46.0892C58.9126 45.5121 58.3983 44.9692 57.8155 44.4721C57.2269 43.975 56.5924 43.5292 55.9124 43.1292C52.9695 41.4321 49.6038 40.3464 45.821 39.8664L33.9524 33.0207L29.1581 35.7864V41.8264C28.3124 42.1864 27.501 42.5921 26.7238 43.0435C24.6495 44.2435 23.101 45.6264 22.0838 47.1864C21.4153 48.215 21.0095 49.2607 20.8781 50.3292V40.5692C20.6667 38.9235 21.0724 37.3178 22.0838 35.7578C23.101 34.1978 24.6495 32.815 26.7238 31.615C30.6838 29.3292 35.4324 28.175 40.9695 28.1521H41.301C46.9753 28.175 51.8438 29.3578 55.9124 31.7007C56.5924 32.1007 57.2269 32.5464 57.8155 33.0435C58.2098 33.3807 58.5755 33.7407 58.9069 34.1178C59.0669 34.295 59.2155 34.4778 59.3583 34.6607Z" stroke="#205363" stroke-linecap="round" stroke-linejoin="round"/>
<path d="M62.307 28.8492V40.2092C62.307 42.415 61.3241 44.375 59.3584 46.0892V34.6607C59.3927 34.6321 59.427 34.5978 59.4613 34.5692C61.3355 32.895 62.2841 30.9864 62.307 28.8492Z" stroke="#205363" stroke-linecap="round" stroke-linejoin="round"/>
<path d="M20.8781 40.5693V51.9978C19.4324 51.9464 17.5695 51.8721 15.2781 51.7807C12.9924 51.6835 11.0095 51.6093 9.32381 51.5578L2.70093 51.3407V39.9121L9.32381 40.1293C11.0095 40.1807 12.9924 40.255 15.2781 40.3521C17.5695 40.4435 19.4324 40.5178 20.8781 40.5693Z" stroke="#205363" stroke-linecap="round" stroke-linejoin="round"/>
<path d="M58.9067 34.1178C59.0667 34.2949 59.2153 34.4777 59.3582 34.6606C59.3925 34.632 59.4267 34.5978 59.461 34.5692C59.2839 34.4207 59.101 34.2664 58.9067 34.1178Z" stroke="#205363" stroke-linecap="round" stroke-linejoin="round"/>
<path d="M53.2722 44.1692L48.4722 46.9407L36.278 39.895L29.158 35.7864L33.9522 33.0206L45.8208 39.8664L53.2722 44.1692Z" stroke="#205363" stroke-linecap="round" stroke-linejoin="round"/>
<path d="M62.3068 28.8493C62.284 30.9864 61.3354 32.895 59.4611 34.5693C59.284 34.4207 59.1011 34.2664 58.9068 34.1178C58.5754 33.7407 58.2097 33.3807 57.8154 33.0435C57.2268 32.5464 56.5923 32.1007 55.9123 31.7007C51.8437 29.3578 46.9752 28.175 41.3009 28.1521H40.9695C35.4323 28.175 30.6837 29.3293 26.7237 31.615C24.6495 32.815 23.1009 34.1978 22.0837 35.7578C21.0723 37.3178 20.6666 38.9235 20.878 40.5693C19.4323 40.5178 17.5695 40.4435 15.278 40.3521C12.9923 40.255 11.0095 40.1807 9.32374 40.1293L2.70087 39.9121L1.87231 31.535C1.81517 30.9235 1.76373 30.3293 1.71801 29.7464C1.51801 27.3064 1.40373 25.1293 1.38087 23.215C1.34658 20.8435 1.5523 18.7464 2.00373 16.9293C2.45515 15.1121 3.20945 13.535 4.26659 12.2093C5.32374 10.8778 6.76945 9.68354 8.60945 8.62069C12.3695 6.44926 16.7637 5.37496 21.798 5.39782C26.8323 5.41496 31.2437 6.5178 35.0266 8.70066C37.118 9.91206 38.678 11.3064 39.7123 12.895C40.7409 14.4835 41.1409 16.135 40.9123 17.8493C43.878 17.7178 46.7409 17.9464 49.4895 18.5407C52.2437 19.1407 54.6609 20.0378 56.758 21.2493C60.1754 23.2207 62.0154 25.4721 62.2668 27.9978C62.2954 28.2835 62.3068 28.5693 62.3068 28.8493Z" stroke="#205363" stroke-linecap="round" stroke-linejoin="round"/>
<path d="M62.3064 40.3749V40.2092" stroke="#205363" stroke-linecap="round" stroke-linejoin="round"/>
<path d="M48.4722 46.9407V58.3692L29.158 47.2149V35.7864L36.278 39.8949L48.4722 46.9407Z" stroke="#205363" stroke-linecap="round" stroke-linejoin="round"/>
</svg>
