<svg width="64" height="64" viewBox="0 0 64 64" fill="none" xmlns="http://www.w3.org/2000/svg">
<path d="M2.15322 42.4438V55.3731C1.64898 51.8434 1.44214 48.6111 1.53911 45.6567V45.5856L1.5197 34.6086C1.53263 36.645 1.68129 38.8107 1.97219 41.0991C2.03038 41.5452 2.08858 41.9913 2.15322 42.4438Z" stroke="#205363" stroke-linecap="round" stroke-linejoin="round"/>
<path d="M62.1386 24.4593C61.796 19.8629 58.8934 15.997 53.4308 12.8423C47.9682 9.68754 41.2643 8.0132 33.3128 7.81279C25.3613 7.61239 18.1791 9.36431 11.7662 13.0621C7.49303 15.5316 4.55802 19.197 2.95479 24.0714C2.03034 26.8706 1.55197 30.09 1.51318 33.7231V34.6088C1.53258 36.6451 1.68124 38.8108 1.97215 41.0993C2.03033 41.5453 2.08853 41.9914 2.15318 42.4439C12.9297 42.9675 22.1678 42.9417 29.8542 42.3599C31.2829 42.2564 32.6598 42.1271 33.9786 41.9849C37.5536 41.597 40.7601 41.0605 43.5852 40.3946C47.4316 39.4831 50.5863 38.3195 53.0493 36.8972C56.1006 35.1389 58.3827 33.277 59.9019 31.3118C61.4146 29.3595 62.1645 27.3102 62.1645 25.1639C62.1645 24.9312 62.158 24.692 62.1386 24.4593ZM42.5378 28.0665L36.7908 31.3894L34.8579 32.5013L32.9701 33.5938L28.6906 31.1178L27.8114 30.6136L29.6668 29.5405L34.8579 26.5409L29.6991 23.5607L29.6668 23.5801L22.6526 27.6334L17.4873 24.6532L22.4328 21.7958L29.6668 17.6261L42.5378 19.1324L43.5334 21.9704L45.1495 26.5603L42.5378 28.0665Z" stroke="#205363" stroke-linecap="round" stroke-linejoin="round"/>
<path d="M34.8579 26.5408V32.5012L32.9701 33.5937L28.6905 31.1177L27.8113 30.6135L29.6667 29.5404L34.8579 26.5408Z" stroke="#205363" stroke-linecap="round" stroke-linejoin="round"/>
<path d="M45.1496 26.5601L42.5378 28.0663V19.1322L43.5334 21.9702L45.1496 26.5601Z" stroke="#205363" stroke-linecap="round" stroke-linejoin="round"/>
<path d="M42.5378 19.1325V28.0666L36.7908 31.3895L34.8579 31.1632V26.541L29.6991 23.5608L29.6667 23.5802V17.6262L42.5378 19.1325Z" stroke="#205363" stroke-linecap="round" stroke-linejoin="round"/>
<path d="M29.6668 17.6262V23.5802L22.6526 27.6335L17.4873 24.6533L22.4328 21.7959L29.6668 17.6262Z" stroke="#205363" stroke-linecap="round" stroke-linejoin="round"/>
<path d="M62.1647 25.1638V38.1642C62.1324 42.4503 59.0939 46.3355 53.0495 49.8264C48.7763 52.2895 42.4151 53.9897 33.9787 54.9141C25.5424 55.8386 14.934 55.9937 2.15332 55.3731V42.4438C12.9299 42.9675 22.168 42.9416 29.8544 42.3598C31.2831 42.2563 32.66 42.1271 33.9787 41.9848C37.5537 41.5969 40.7602 41.0604 43.5853 40.3945C47.4317 39.483 50.5864 38.3194 53.0495 36.8972C56.1008 35.1388 58.3829 33.2769 59.902 31.3117C61.4148 29.3594 62.1647 27.3101 62.1647 25.1638Z" stroke="#205363" stroke-linecap="round" stroke-linejoin="round"/>
<path d="M62.1648 25.1639V24.9053" stroke="#205363" stroke-linecap="round" stroke-linejoin="round"/>
<path d="M1.51318 33.7229V33.0054" stroke="#205363" stroke-linecap="round" stroke-linejoin="round"/>
</svg>
