<svg width="64" height="64" viewBox="0 0 64 64" fill="none" xmlns="http://www.w3.org/2000/svg">
<path d="M36.6014 44.5705V55.3268L31.3039 52.2666L23.355 47.6844V36.9281L23.839 37.2024L31.3039 41.5103L32.6699 42.3063L36.6014 44.5705Z" stroke="#205363" stroke-linecap="round" stroke-linejoin="round"/>
<path d="M29.8786 22.9664V33.1634L23.3549 36.9281V37.4874L14.5186 42.5805V31.8242L29.8786 22.9664Z" stroke="#205363" stroke-linecap="round" stroke-linejoin="round"/>
<path d="M14.5186 31.8242V42.5805L9.2265 39.5257L1.27759 34.9436V24.1873L9.2265 28.7694L10.5926 29.5654L14.5186 31.8242Z" stroke="#205363" stroke-linecap="round" stroke-linejoin="round"/>
<path d="M62.9276 29.3717V40.128L60.9055 41.3058L36.6013 55.3267V44.5704L60.5559 30.7485L60.9055 30.5495L62.9276 29.3717Z" stroke="#205363" stroke-linecap="round" stroke-linejoin="round"/>
<path d="M62.9271 29.3717L60.9054 30.5495L60.5553 30.7485L36.6013 44.5704L32.6699 42.3062L31.3038 41.5102L23.8389 37.2023L23.3549 36.928L29.8786 33.1633L30.7606 32.6524L38.7149 28.0594L29.8786 22.9663L14.5186 31.8242L10.5926 29.5653L9.2265 28.7694L1.27759 24.1872L27.6036 8.98315L58.4315 11.5808L62.9271 29.3717Z" stroke="#205363" stroke-linecap="round" stroke-linejoin="round"/>
<path d="M38.715 28.0595L30.7607 32.6525L29.8787 33.1634V22.9664L38.715 28.0595Z" stroke="#205363" stroke-linecap="round" stroke-linejoin="round"/>
</svg>
