<svg width="59" height="47" viewBox="0 0 59 47" fill="none" xmlns="http://www.w3.org/2000/svg">
<path d="M39.7168 18.6278V30.5997L13.9592 45.4749V33.5029L18.1973 31.0547L33.7309 22.0877L37.8851 19.6873L38.1964 19.5077L39.7168 18.6278Z" stroke="#205363"/>
<path d="M58.034 21.7705L54.8256 24.8712C52.8741 24.2248 50.9167 23.5064 48.9473 22.7163C48.3368 22.4769 47.7262 22.2254 47.1096 21.968C44.5177 20.8846 42.0575 19.7772 39.717 18.6279L38.1965 19.5078L37.8853 19.6874L33.731 22.0878L18.1974 31.0547L13.9594 33.503L11.3674 32.0065L9.6375 31.0069L18.1974 26.0684L22.5193 23.5723L18.1974 21.0761L5.32162 28.5167L0.999756 26.0205L17.9101 16.2574L22.4475 13.6356L26.7574 11.1454C24.776 9.79857 22.8485 8.37391 20.9749 6.87742C19.1013 5.38692 17.4252 3.90242 15.9407 2.42388L21.3161 0.574219C23.3753 2.62741 25.8176 4.66862 28.6429 6.69186C31.4743 8.71511 34.4314 10.6246 37.5321 12.4085C37.6458 12.4743 37.7656 12.5401 37.8853 12.612C40.8783 14.33 44.0628 15.9701 47.4389 17.5444C48.3128 17.9515 49.1808 18.3405 50.0547 18.7177C52.7005 19.861 55.3583 20.8786 58.034 21.7705Z" stroke="#205363"/>
<path d="M50.0546 8.70317V8.71515C50.0546 9.68487 49.462 10.5109 48.2887 11.1874C47.1095 11.8698 45.6729 12.211 43.9907 12.205C42.3027 12.205 40.8661 11.8578 39.6749 11.1694C38.4896 10.487 37.891 9.65494 37.8851 8.67923C37.8791 7.70951 38.4717 6.88344 39.6509 6.20104C40.8301 5.51864 42.2608 5.17744 43.9488 5.18343C45.6369 5.18343 47.0736 5.53061 48.2648 6.21301C49.45 6.9014 50.0486 7.72746 50.0546 8.70317Z" stroke="#205363"/>
<path d="M58.0339 21.7705V33.7424L54.8254 36.8432V24.8712L58.0339 21.7705Z" stroke="#205363"/>
<path d="M54.8257 24.8712V36.8431C52.2697 35.9931 49.7017 35.0234 47.1098 33.9399C44.5178 32.8564 42.0576 31.749 39.717 30.5997V18.6278C42.0576 19.7771 44.5178 20.8845 47.1098 21.968C47.7263 22.2254 48.3369 22.4768 48.9475 22.7162C50.9168 23.5064 52.8743 24.2247 54.8257 24.8712Z" stroke="#205363"/>
<path d="M5.32162 28.5167V38.4953L5.29528 40.5477L1.05602 38.0252C1.05602 37.2162 0.999756 34.8473 0.999756 33.4551V26.0205L5.32162 28.5167Z" stroke="#205363"/>
<path d="M18.1972 26.0685V21.0762L5.32143 28.5167L5.29957 40.6061L9.61539 38.4674L9.63725 31.0069L18.1972 26.0685Z" stroke="#205363"/>
<path d="M22.5194 23.5723L18.1975 26.0685V21.0762L22.5194 23.5723Z" stroke="#205363"/>
<path d="M26.7568 11.1454L22.4469 13.6355L17.9096 16.2574C17.2212 15.6348 16.5627 15.0183 15.9402 14.3957V2.42383C17.4247 3.90236 19.1008 5.38687 20.9744 6.87737C22.848 8.37387 24.7755 9.79853 26.7568 11.1454Z" stroke="#205363"/>
<path d="M50.0545 8.71524V18.7178C49.1806 18.3407 48.3126 17.9516 47.4387 17.5445C44.0625 15.9702 40.878 14.3301 37.885 12.6121V8.67932C37.891 9.65503 38.4895 10.4871 39.6748 11.1695C40.866 11.8579 42.3026 12.2051 43.9906 12.2051C45.6728 12.211 47.1094 11.8698 48.2887 11.1874C49.4619 10.511 50.0545 9.68496 50.0545 8.71524Z" stroke="#205363"/>
<path d="M13.9591 45.4752V33.5032L11.3672 32.0067L9.63721 31.0071V38.4417V42.9799L13.9591 45.4752Z" stroke="#205363"/>
</svg>
