<svg width="72" height="49" viewBox="0 0 72 49" fill="none" xmlns="http://www.w3.org/2000/svg">
<path d="M49.6042 18.0592V29.7022L47.8403 29.4926V21.0747L39.9929 20.1375V16.9298L47.3805 17.7972L49.6042 18.0592Z" stroke="#205363"/>
<path d="M52.311 13.3204V24.9634L49.604 29.7021V18.0591L50.9197 15.7538L52.311 13.3204Z" stroke="#205363"/>
<path d="M70.5319 8.36655L64.7744 9.46099L62.8766 12.7851L53.2421 7.22553L47.4963 10.5438L52.3107 13.3207L50.9193 15.754L49.6037 18.0594L47.3799 17.7974L39.9924 16.93L38.147 13.7107L32.57 12.6512L30.5732 7.01596L38.6301 5.42669L43.6425 8.31416L57.0436 0.577393L70.5319 8.36655Z" stroke="#205363"/>
<path d="M47.84 21.0743L43.34 28.9682L41.6285 31.9721L39.946 34.9236L16.4912 21.3828L1.40771 12.6739L25.3923 8.005L27.8781 15.0257L30.5734 15.5555L32.5702 15.9514L33.8393 16.2017L34.7998 17.8259L35.8768 19.6422L38.1472 19.9158L39.9926 20.137L47.84 21.0743Z" stroke="#205363"/>
<path d="M47.8402 21.0746V32.7176L39.9463 46.567V34.9239L41.6287 31.9724L43.3402 28.9685L47.8402 21.0746Z" stroke="#205363"/>
<path d="M70.5324 8.36633V20.0093L64.7749 21.1038V9.46078L70.5324 8.36633Z" stroke="#205363"/>
<path d="M64.7752 9.46069V21.1037L62.8774 24.4278V12.7848L64.7752 9.46069Z" stroke="#205363"/>
<path d="M62.8777 12.7847V24.4277L53.2429 18.8682V7.22522L62.8777 12.7847Z" stroke="#205363"/>
<path d="M53.2419 7.22522V18.8682L52.3105 19.4037V13.3203L47.4961 10.5435L53.2419 7.22522Z" stroke="#205363"/>
<path d="M38.1471 13.7108V19.9164L35.8767 19.6429L34.7998 17.8265L33.8392 16.2023L32.5701 15.952V12.6512L38.1471 13.7108Z" stroke="#205363"/>
<path d="M39.9928 16.9297V20.1374L38.1475 19.9162V13.7104L39.9928 16.9297Z" stroke="#205363"/>
<path d="M32.57 12.6511V15.9519L30.5732 15.556V7.01587L32.57 12.6511Z" stroke="#205363"/>
<path d="M39.946 34.9241V46.5671L1.40771 24.3173V12.6743L16.4912 21.3833L39.946 34.9241Z" stroke="#205363"/>
</svg>
