<svg width="62" height="47" viewBox="0 0 62 47" fill="none" xmlns="http://www.w3.org/2000/svg">
<path d="M36.7461 29.6309V39.8881L27.5813 45.1808V34.9236L32.515 32.0721L36.4589 29.795L36.7461 29.6309Z" stroke="#205363"/>
<path d="M24.8068 22.7381L24.6837 22.9997L23.0323 26.5948L21.0783 30.8413L15.2009 27.4462V17.189L23.7965 22.1535L24.8068 22.7381Z" stroke="#205363"/>
<path d="M48.6397 31.1232V41.3804L43.988 44.0678V33.8106L45.342 33.0259L48.6397 31.1232Z" stroke="#205363"/>
<path d="M43.9877 33.8107V44.0679L36.7461 39.8881V29.6309L43.9877 33.8107Z" stroke="#205363"/>
<path d="M52.5832 28.8464V39.1037L48.6393 36.8266V31.1235L45.3416 29.2208V24.6666L49.188 26.8873L52.5832 28.8464Z" stroke="#205363"/>
<path d="M49.9934 21.9842L60.4866 15.9273L55.4503 13.0143L44.9571 19.0763L39.5669 15.9632L35.823 13.7989L36.5 12.3322L40.2439 4.23922L33.9049 0.577393L23.4118 6.63427L16.5907 2.69551L11.9391 5.38289L18.7601 9.32166L14.8162 11.5988L11.9391 9.9371L7.99517 7.65999L3.34352 10.3474L10.1646 14.281L3.34352 18.2198L0.999756 19.5738L6.03604 22.4817L6.31812 22.3176L10.9698 19.6353L14.9137 17.3582L15.2009 17.189L23.7964 22.1534L24.8068 22.7381L24.6837 22.9997L23.0323 26.5948L21.0783 30.8413L20.9603 31.0977L24.6888 33.2518L27.5813 34.9237L32.5151 32.0722L36.459 29.7951L36.7462 29.631L43.9878 33.8108L45.3417 33.0261L48.6394 31.1234L45.3417 29.2207L45.2494 29.1643L41.3978 26.9436L45.3417 24.6665L49.1882 26.8872L52.5834 28.8463L57.235 26.164L53.8399 24.2049L49.9934 21.9842ZM26.7608 18.4916L23.7964 16.7838L23.699 16.7274L19.8525 14.5067L23.7964 12.2296L27.6429 14.4503L28.4173 14.8965L26.7608 18.4916ZM29.1712 28.1898L30.2431 25.8717L31.7099 26.723L29.1712 28.1898ZM30.3662 10.65L28.4481 9.54219L31.756 7.63435L30.3662 10.65ZM36.3615 24.0356L35.9461 23.7946L33.8639 22.5945L32.2022 21.6355L33.8639 18.0403L37.6078 20.1994L40.3054 21.7585L36.3615 24.0356Z" stroke="#205363"/>
<path d="M45.3418 24.6666V29.2208L45.2496 29.1644L41.3979 26.9437L45.3418 24.6666Z" stroke="#205363"/>
<path d="M31.7102 26.7233L29.1716 28.1901L30.2435 25.8719L31.7102 26.7233Z" stroke="#205363"/>
<path d="M31.7562 7.6344L30.3663 10.65L28.4482 9.54224L31.7562 7.6344Z" stroke="#205363"/>
<path d="M40.3053 21.7584L36.3614 24.0355L35.946 23.7945L33.8638 22.5944V18.0402L37.6077 20.1993L40.3053 21.7584Z" stroke="#205363"/>
<path d="M33.8641 18.0402V22.5944L32.2024 21.6353L33.8641 18.0402Z" stroke="#205363"/>
<path d="M23.7967 12.2296V16.7838L23.6992 16.7274L19.8528 14.5067L23.7967 12.2296Z" stroke="#205363"/>
<path d="M28.4173 14.8965L26.7607 18.4917L23.7964 16.7838V12.2296L27.6428 14.4503L28.4173 14.8965Z" stroke="#205363"/>
<path d="M60.4866 15.9274V26.1846L57.235 28.0617V26.1641L53.8399 24.2049L49.9934 21.9843L60.4866 15.9274Z" stroke="#205363"/>
<path d="M57.2351 26.1639V36.4212L52.5835 39.1034V28.8462L57.2351 26.1639Z" stroke="#205363"/>
<path d="M40.2441 4.23901V14.4963L39.5671 15.963L35.8232 13.7988L36.5003 12.332L40.2441 4.23901Z" stroke="#205363"/>
<path d="M18.7603 9.32171L14.8164 11.5988L11.9392 9.93714V5.38293L18.7603 9.32171Z" stroke="#205363"/>
<path d="M10.1648 14.2812L3.34375 18.22V10.3475L10.1648 14.2812Z" stroke="#205363"/>
<path d="M6.03629 22.4818V32.739L1 29.8311V19.5739L6.03629 22.4818Z" stroke="#205363"/>
<path d="M15.201 17.189V27.4462L6.03613 32.7389V22.4817L6.31821 22.3176L10.9699 19.6353L14.9138 17.3582L15.201 17.189Z" stroke="#205363"/>
<path d="M27.5817 34.9236V45.1808L20.9607 41.3549V31.0977L24.6892 33.2517L27.5817 34.9236Z" stroke="#205363"/>
</svg>
