<svg width="62" height="49" viewBox="0 0 62 49" fill="none" xmlns="http://www.w3.org/2000/svg">
<path d="M52.3805 20.8223V33.3192L25.406 33.2692V20.7723L32.9167 20.7848L41.5833 20.8036L52.368 20.8223H52.3805Z" stroke="#205363"/>
<path d="M60.3793 3.70178V16.1987L52.3815 20.8163L52.2877 16.4173L49.1885 16.4111L38.3975 16.3924L60.3793 3.70178Z" stroke="#205363"/>
<path d="M23.4254 28.5517V28.5829C23.4254 30.3887 22.3069 31.9321 20.0825 33.2192C18.8078 33.9566 17.3832 34.4814 15.8149 34.7939C14.6277 35.0375 13.3592 35.15 12.0033 35.15C10.6474 35.15 9.32276 35.0188 8.11682 34.7689C6.56721 34.4439 5.16757 33.9191 3.89913 33.188C1.64345 31.8883 0.512523 30.3262 0.500026 28.5142C0.493778 26.6959 1.60591 25.14 3.84909 23.8466C6.08602 22.5532 8.77921 21.9096 11.9284 21.9158C15.0776 21.9221 17.7769 22.5719 20.0325 23.8778C22.2882 25.1775 23.4192 26.7334 23.4254 28.5517Z" stroke="#205363"/>
<path d="M52.287 16.4172L52.3808 20.8161L52.3683 20.8223L41.5836 20.8036L32.917 20.7849L25.4064 20.7723L25.3876 17.6981L25.3252 5.20121L32.8733 5.21377L32.9858 13.268L54.9676 0.577393L60.3787 3.70161L38.3968 16.3922L49.1878 16.411L52.287 16.4172Z" stroke="#205363"/>
<path d="M23.4254 28.5829V41.0485C23.4379 42.8668 22.3193 44.4227 20.0824 45.7161C17.8392 47.0095 15.1462 47.6531 12.0033 47.6469C8.85407 47.6469 6.15475 46.9908 3.8991 45.6849C1.64342 44.3852 0.512497 42.8231 0.5 41.011V28.5142C0.512497 30.3262 1.64342 31.8883 3.8991 33.188C5.1675 33.9191 6.56715 34.4439 8.11675 34.7689C9.3227 35.0188 10.6224 35.15 12.0033 35.15C13.3842 35.15 14.6277 35.0375 15.8149 34.7938C17.3832 34.4814 18.8077 33.9566 20.0824 33.2192C22.3068 31.9321 23.4254 30.3887 23.4254 28.5829Z" stroke="#205363"/>
<path d="M25.4064 20.7725V33.2694L25.3252 17.6983V5.20142L25.3876 17.6983L25.4064 20.7725Z" fill="#205363"/>
</svg>
