<svg width="65" height="52" viewBox="0 0 65 52" fill="none" xmlns="http://www.w3.org/2000/svg">
<path d="M63.6856 3.68457V15.1961C63.7678 17.6119 62.9573 20.1546 61.2484 22.8362C59.3281 25.8439 56.5502 28.5799 52.9209 31.032V26.9371C52.9209 26.6774 52.8681 26.4118 52.7741 26.1461L51.9109 23.6879C51.5057 23.8932 51.1063 24.0865 50.7128 24.2798C47.7589 25.7232 45.0518 26.8707 42.5911 27.7405H42.5853C39.7958 28.7189 36.4424 29.6549 32.5195 30.5488V39.4451C31.7855 39.6082 31.0456 39.7592 30.2998 39.8981V27.8188C33.1833 27.2753 35.9374 26.5868 38.5566 25.7473C39.4668 25.4635 40.3654 25.1554 41.2404 24.8293C43.9242 23.8388 46.4552 22.6974 48.8454 21.4049C49.4973 21.0606 50.1374 20.6982 50.7657 20.3237C54.6475 18.0166 57.7072 15.4437 59.9447 12.5991C60.4145 11.9951 60.8491 11.379 61.2484 10.7569C62.2233 9.23494 62.9045 7.74931 63.2921 6.31188C63.5387 5.41802 63.6679 4.5422 63.6856 3.68457Z" stroke="#205363"/>
<path d="M20.5038 6.98251C19.4467 6.8436 18.3955 6.87392 17.3561 7.06114C16.3225 7.24837 15.424 7.56847 14.6723 8.0154L1.28857 15.9574L13.0867 19.0075C14.5842 16.6823 16.164 14.6891 17.8142 13.0282C19.4703 11.3733 21.7429 9.53129 24.6381 7.49594L20.5038 6.98251Z" stroke="#205363"/>
<path d="M63.2921 0.737407C58.0773 0.187802 52.4513 0.592463 46.4201 1.95138C40.3831 3.31029 35.0154 5.38193 30.3055 8.17827C28.209 9.42243 26.3181 10.7329 24.6385 12.116C23.9338 12.6897 23.2644 13.2817 22.636 13.8796C20.9154 15.5163 19.5117 17.2256 18.4312 19.0072C18.161 19.4421 17.9143 19.8829 17.6853 20.3299L20.9976 22.2988L24.4506 24.3461L30.2999 27.8189C33.1833 27.2754 35.9374 26.5869 38.5566 25.7474C39.4669 25.4635 40.3655 25.1555 41.2405 24.8294C43.9243 23.8389 46.4553 22.6975 48.8455 21.405C49.4973 21.0607 50.1374 20.6983 50.7658 20.3238C54.6476 18.0167 57.7073 15.4438 59.9448 12.5992C60.4146 11.9952 60.8491 11.3792 61.2485 10.7571C62.2233 9.23509 62.9045 7.7494 63.2921 6.31197C63.5388 5.41811 63.668 4.54229 63.6856 3.68467V3.38269C63.6797 2.48278 63.5505 1.60107 63.2921 0.737407ZM50.39 13.2696C50.0905 13.8011 49.5795 14.2782 48.8631 14.7009C47.6239 15.4378 46.1147 15.8063 44.3412 15.8063C43.2489 15.8002 42.2623 15.6613 41.3696 15.3835C40.8058 15.2023 40.2832 14.9727 39.8017 14.6828C38.5508 13.946 37.9224 13.0461 37.9166 11.9892C37.9107 10.9383 38.5332 10.0444 39.7723 9.30152C41.0173 8.56469 42.5265 8.20231 44.3 8.20231C46.0736 8.20231 47.5887 8.57683 48.8337 9.3197C50.0846 10.0626 50.7129 10.9624 50.7188 12.0133C50.7188 12.4602 50.6132 12.8831 50.39 13.2696Z" stroke="#205363"/>
<path d="M50.7192 12.0134C50.7192 12.4603 50.6136 12.8832 50.3905 13.2697C50.091 13.8012 49.58 14.2782 48.8635 14.701C47.6244 15.4379 46.1152 15.8063 44.3417 15.8063C43.2494 15.8002 42.2627 15.6614 41.3701 15.3836C40.8063 15.2024 40.2837 14.9727 39.8021 14.6828C38.5513 13.946 37.9229 13.0462 37.917 11.9892C37.9112 10.9383 38.5336 10.0445 39.7727 9.3016C41.0177 8.56477 42.527 8.20239 44.3005 8.20239C46.074 8.20239 47.5892 8.57691 48.8342 9.31978C50.085 10.0627 50.7133 10.9625 50.7192 12.0134Z" stroke="#205363"/>
<path d="M52.9207 26.9372C52.9207 27.2996 52.8268 27.656 52.6447 28.0123C52.3276 28.6283 51.7932 29.1599 51.0356 29.6068L37.6578 37.5489L32.5193 30.5489C36.4422 29.6551 39.7955 28.719 42.585 27.7406H42.5909C45.0515 26.8709 47.7587 25.7233 50.7126 24.2799C51.1061 24.0866 51.5054 23.8933 51.9107 23.688L52.7739 26.1462C52.8678 26.4119 52.9207 26.6775 52.9207 26.9372Z" stroke="#205363"/>
<path d="M30.2999 27.8191V39.8984L17.6853 32.4093V20.3301L20.9976 22.299L24.4506 24.3464L30.2999 27.8191Z" stroke="#205363"/>
<path d="M37.6578 37.549V49.6282L32.5193 42.6283V30.5491L37.6578 37.549Z" stroke="#205363"/>
<path d="M52.9208 26.9373V39.0527C52.915 39.403 52.8211 39.7473 52.6449 40.0915C52.3278 40.7076 51.7933 41.2391 51.0358 41.6861L37.658 49.6281V37.5489L51.0358 29.6068C51.7933 29.1599 52.3278 28.6283 52.6449 28.0123C52.8269 27.656 52.9208 27.2996 52.9208 26.9373Z" stroke="#205363"/>
<path d="M52.9207 26.9372V26.8164" stroke="#205363"/>
<path d="M24.6385 7.49585V12.1161C23.9338 12.6899 23.2644 13.2819 22.636 13.8798C20.9154 15.5165 19.5117 17.2257 18.4312 19.0074C18.161 19.4423 17.9143 19.8831 17.6853 20.33V25.2404C16.0821 26.8711 14.5436 28.8218 13.0872 31.0867V19.0074C14.5847 16.6822 16.1645 14.689 17.8147 13.0281C19.4707 11.3732 21.7433 9.5312 24.6385 7.49585Z" stroke="#205363"/>
<path d="M13.0867 19.0076V31.0868L1.28857 28.0368V15.9575L13.0867 19.0076Z" stroke="#205363"/>
<path d="M63.6858 15.4562V15.1965" stroke="#205363"/>
</svg>
