<svg width="59" height="44" viewBox="0 0 59 44" fill="none" xmlns="http://www.w3.org/2000/svg">
<path d="M57.5287 20.0286V29.8315L44.6623 37.2573C39.3197 40.3403 32.8595 42.2225 25.2818 42.9038C17.7041 43.5802 10.842 42.8548 4.69556 40.7275V30.9246C10.842 33.0518 17.7041 33.7772 25.2818 33.1008C28.4384 32.8165 31.4038 32.3264 34.1731 31.6206C36.2072 31.1059 38.1385 30.4785 39.9667 29.7335C41.6185 29.0669 43.182 28.3072 44.6623 27.4543L52.2057 23.1018L57.5287 20.0286Z" stroke="#205363"/>
<path d="M46.8779 6.68246L23.5713 0.536011L10.7049 7.96174C5.36226 11.0448 2.10279 14.7748 0.926429 19.1518C0.642143 20.2106 0.5 21.2448 0.5 22.2545C0.5 23.8916 0.872474 25.465 1.6224 26.9697C2.31841 28.3813 3.34283 29.739 4.69565 31.0379C10.8421 33.1652 17.7042 33.8906 25.2819 33.2142C28.4385 32.9299 31.4039 32.4398 34.1732 31.734C36.2073 31.2193 38.1386 30.5919 39.9668 29.8469C41.6186 29.1803 43.1821 28.4205 44.6624 27.5677L52.2059 23.2152L57.5289 20.1419L46.8779 6.68246ZM22.0813 21.9065L16.0672 21.8967L16.0279 14.6915V13.2848L18.4591 13.2897H22.0518L22.0813 18.4264L39.9569 18.4607L39.9766 21.9408L22.0813 21.9065Z" stroke="#205363"/>
<path d="M22.0812 18.313V21.7931L16.0671 21.7833L16.0278 14.5781L16.0229 13.1714L18.459 13.1763L22.0518 13.1812L22.0812 18.313Z" stroke="#205363"/>
<path d="M39.9763 21.8276L22.0811 21.7933V18.3132L39.9567 18.3475L39.9763 21.8276Z" stroke="#205363"/>
<path d="M4.69565 30.9247V40.7277C1.89689 38.0368 0.5 35.1106 0.5 31.9442V22.1412C0.5 23.7783 0.872474 25.3517 1.6224 26.8565C2.31841 28.2681 3.34283 29.6258 4.69565 30.9247Z" stroke="#205363"/>
<path d="M0.5 32.0962V31.9442" stroke="#205363"/>
</svg>
