<svg width="59" height="45" viewBox="0 0 59 45" fill="none" xmlns="http://www.w3.org/2000/svg">
<path d="M55.4005 10.8303C53.9958 8.79672 51.8994 6.97806 49.1009 5.3638C46.3074 3.74955 43.1522 2.53358 39.6354 1.72645C36.1239 0.914078 32.5547 0.505293 28.9279 0.500052C25.301 0.494811 21.7319 0.887899 18.2256 1.68455C14.7245 2.48644 11.5799 3.68665 8.8021 5.29042C6.02431 6.8942 3.94349 8.70762 2.55984 10.7307C1.17618 12.7538 0.489636 14.8135 0.500118 16.9099C0.515842 18.6604 1.0138 20.3953 1.99913 22.0987C2.18781 22.4341 2.39743 22.7643 2.62804 23.0945C4.03266 25.1228 6.13437 26.9414 8.92788 28.5557C11.7266 30.17 14.8764 31.3859 18.3932 32.193C21.9048 33.0054 25.4793 33.4141 29.1061 33.4194C29.5412 33.4194 29.9762 33.4142 30.4112 33.4037C32.3242 33.3565 34.2161 33.1993 36.0977 32.9215C37.3398 32.7433 38.5768 32.5127 39.8032 32.2349C43.3095 31.4383 46.4489 30.2328 49.2267 28.629C52.0042 27.0252 54.0855 25.2119 55.4691 23.1888C55.6683 22.8953 55.8564 22.5966 56.0294 22.3031C57.0305 20.5787 57.5289 18.8334 57.5289 17.0567V17.0095C57.5184 14.9183 56.8051 12.8586 55.4005 10.8303ZM30.4112 23.3303L30.3692 16.1762L17.9793 16.1552L17.9111 12.8691L36.0454 12.9005L36.1029 23.3722L30.4112 23.3303Z" stroke="#205363"/>
<path d="M36.1025 23.3723L30.4107 23.3304L30.3688 16.1763L17.9788 16.1553L17.9106 12.8691L36.0449 12.9006L36.1025 23.3723Z" stroke="#205363"/>
<path d="M57.5285 17.0569V27.492C57.539 29.5884 56.8524 31.6482 55.4687 33.6713C54.0851 35.6943 52.0043 37.5077 49.2267 39.1114C46.4489 40.7152 43.3095 41.9207 39.8032 42.7173C36.2969 43.514 32.733 43.9123 29.1061 43.9019C25.4793 43.8966 21.9048 43.4878 18.3932 42.6754C14.8764 41.8683 11.7266 40.6524 8.92784 39.0382C6.13433 37.4239 4.03266 35.6052 2.62804 33.5769C1.22343 31.5486 0.515845 29.4836 0.500122 27.3924V16.9102C0.515845 18.6607 1.01381 20.3955 1.99914 22.0989C2.18782 22.4343 2.39743 22.7645 2.62804 23.0947C4.03266 25.123 6.13433 26.9417 8.92784 28.5559C11.7266 30.1702 14.8764 31.3861 18.3932 32.1932C21.9048 33.0056 25.4793 33.4144 29.1061 33.4196C29.5411 33.4196 29.9761 33.4145 30.4111 33.404C32.3241 33.3568 34.2161 33.1995 36.0977 32.9217C37.3398 32.7435 38.5767 32.5129 39.8032 32.2351C43.3095 31.4385 46.4489 30.233 49.2267 28.6292C52.0043 27.0254 54.0851 25.2121 55.4687 23.1891C55.6679 22.8956 55.8566 22.5968 56.0295 22.3033C57.0306 20.5789 57.5285 18.8336 57.5285 17.0569Z" stroke="#205363"/>
</svg>
