<svg width="130" height="42" viewBox="0 0 130 42" fill="none" xmlns="http://www.w3.org/2000/svg">
<path fill-rule="evenodd" clip-rule="evenodd" d="M19.2798 31.9054L52.4152 31.9528L36.4389 41.0177L3.54588 41.0117L0 34.9919L1.81345 32.1319L16.9226 8.76737L32.6277 0L17.5312 23.3478L15.7178 26.2078L19.2798 31.9054Z" fill="#266B31"/>
<path fill-rule="evenodd" clip-rule="evenodd" d="M44.33 23.3478L35.977 10.4295L27.6242 23.3478H44.33Z" fill="#266B31"/>
<path d="M54.8613 19.0065L58.6965 8.51982H61.3931L65.1982 19.0065H62.7863L61.9773 16.7144H57.9924L57.1834 19.0065H54.8613ZM58.5916 14.9017H61.3631L59.9699 10.9168L58.5916 14.9017Z" fill="#122F38"/>
<path d="M64.1862 8.51982H66.5682L69.085 16.28L71.6617 8.51982H73.9838L70.4333 19.0065H67.7517L64.1862 8.51982Z" fill="#122F38"/>
<path d="M75.1867 8.51982H82.2278V10.4524H77.4339V12.8044H81.329V14.6471H77.4339V17.074H82.3926V19.0065H75.1867V8.51982Z" fill="#122F38"/>
<path d="M88.3145 8.51982C89.0635 8.51982 89.7377 8.66963 90.3219 8.95427C90.9062 9.23891 91.3556 9.6434 91.6852 10.1677C91.9998 10.7071 92.1646 11.3213 92.1646 12.0104C92.1646 12.6845 91.9998 13.2838 91.6852 13.7931C91.3556 14.3025 90.9212 14.692 90.3669 14.9617L92.4342 19.0065H89.9474L88.1946 15.486H86.292V19.0065H84.0449V8.51982H88.3145ZM86.292 13.6134H88.1347C88.659 13.6134 89.0785 13.4785 89.3931 13.1789C89.7077 12.8943 89.8725 12.5048 89.8725 12.0104C89.8725 11.516 89.7077 11.1265 89.3931 10.8269C89.0785 10.5423 88.659 10.3924 88.1347 10.3924H86.292V13.6134Z" fill="#122F38"/>
<path d="M93.9563 8.51982H96.2035V19.0065H93.9563V8.51982Z" fill="#122F38"/>
<path d="M100.062 15.5909C100.092 16.1152 100.302 16.5347 100.691 16.8493C101.081 17.1639 101.59 17.3137 102.234 17.3137C102.759 17.3137 103.193 17.2088 103.523 16.9841C103.852 16.7594 104.032 16.4448 104.032 16.0403C104.032 15.7706 103.927 15.5459 103.747 15.3811C103.567 15.2163 103.298 15.0815 102.968 14.9916C102.639 14.9017 102.114 14.7819 101.425 14.6321C100.736 14.5122 100.152 14.3474 99.6874 14.1377C99.208 13.928 98.8335 13.6284 98.5339 13.2239C98.2342 12.8194 98.0994 12.2801 98.0994 11.6059C98.0994 11.0067 98.2642 10.4524 98.5938 9.97298C98.9234 9.49359 99.3878 9.11906 99.987 8.8494C100.586 8.57974 101.26 8.42993 102.009 8.42993C102.774 8.42993 103.463 8.57974 104.077 8.86438C104.691 9.14902 105.17 9.53853 105.53 10.0329C105.89 10.5423 106.069 11.0966 106.084 11.7258H103.882C103.822 11.2763 103.642 10.9168 103.313 10.6471C102.983 10.3775 102.549 10.2277 102.009 10.2277C101.5 10.2277 101.111 10.3325 100.811 10.5423C100.511 10.752 100.362 11.0516 100.362 11.4411C100.362 11.7258 100.451 11.9505 100.631 12.1003C100.811 12.2501 101.066 12.3849 101.395 12.4748C101.725 12.5647 102.234 12.6845 102.923 12.8044C103.612 12.9392 104.212 13.104 104.691 13.2988C105.17 13.4935 105.545 13.7931 105.845 14.1827C106.144 14.5722 106.294 15.0965 106.294 15.7557C106.294 16.3998 106.114 16.9691 105.77 17.4785C105.41 17.9878 104.931 18.3773 104.302 18.662C103.672 18.9616 102.983 19.0964 102.204 19.0964C101.365 19.0964 100.616 18.9466 99.9571 18.647C99.2979 18.3474 98.7885 17.9129 98.429 17.3736C98.0545 16.8343 97.8597 16.2351 97.8597 15.5609L100.062 15.5909Z" fill="#122F38"/>
<path d="M54.8613 31.5628L58.6965 21.0761H61.3931L65.1982 31.5628H62.7863L61.9773 29.2707H57.9924L57.1834 31.5628H54.8613ZM58.5916 27.458H61.3631L59.9699 23.473L58.5916 27.458Z" fill="#122F38"/>
<path d="M66.2015 23.518C66.621 22.709 67.2052 22.0948 67.9843 21.6453C68.7633 21.2109 69.6771 20.9862 70.7258 20.9862C71.5348 20.9862 72.2688 21.151 72.928 21.4656C73.5722 21.7952 74.0965 22.2446 74.501 22.8139C74.8905 23.3981 75.1302 24.0723 75.2201 24.8213H72.9729C72.8381 24.2221 72.5684 23.7577 72.149 23.4131C71.7295 23.0685 71.2202 22.8888 70.6059 22.8888C69.767 22.8888 69.0928 23.2034 68.6135 23.8326C68.1191 24.4618 67.8794 25.3007 67.8794 26.3194C67.8794 27.3381 68.1191 28.1771 68.6135 28.8063C69.0928 29.4355 69.767 29.7501 70.6059 29.7501C71.2202 29.7501 71.7295 29.5853 72.149 29.2407C72.5684 28.8962 72.8381 28.4168 72.9729 27.8175H75.2201C75.1302 28.5816 74.8905 29.2557 74.501 29.825C74.0965 30.4093 73.5722 30.8587 72.928 31.1733C72.2688 31.5029 71.5348 31.6527 70.7258 31.6527C69.6771 31.6527 68.7633 31.4429 67.9843 30.9935C67.2052 30.5591 66.621 29.9448 66.2015 29.1359C65.782 28.3269 65.5873 27.3981 65.5873 26.3194C65.5873 25.2558 65.782 24.327 66.2015 23.518Z" fill="#122F38"/>
<path d="M75.606 31.5628L79.4411 21.0761H82.1377L85.9429 31.5628H83.5309L82.722 29.2707H78.737L77.928 31.5628H75.606ZM79.3363 27.458H82.1077L80.7145 23.473L79.3363 27.458Z" fill="#122F38"/>
<path d="M87.2049 21.0761H90.8453C91.894 21.0761 92.8078 21.3008 93.6168 21.7502C94.4258 22.1996 95.04 22.8139 95.4745 23.6079C95.9089 24.4019 96.1336 25.3007 96.1336 26.3194C96.1336 27.3381 95.9089 28.252 95.4745 29.046C95.04 29.84 94.4258 30.4542 93.6168 30.9036C92.8078 31.3531 91.894 31.5628 90.8453 31.5628H87.2049V21.0761ZM90.8453 29.6902C91.7891 29.6902 92.5232 29.3905 93.0475 28.7763C93.5719 28.1621 93.8415 27.3381 93.8415 26.3194C93.8415 25.3007 93.5719 24.4917 93.0475 23.8775C92.5232 23.2633 91.7891 22.9487 90.8453 22.9487H89.4521V29.6902H90.8453Z" fill="#122F38"/>
<path d="M97.8186 21.0761H104.86V23.0086H100.066V25.3606H103.961V27.2033H100.066V29.6302H105.025V31.5628H97.8186V21.0761Z" fill="#122F38"/>
<path d="M106.677 21.0761H109.628L112.534 28.7763L115.351 21.0761H118.242V31.5628H116.1V24.5367L113.373 31.5628H111.546L108.819 24.5367V31.5628H106.677V21.0761Z" fill="#122F38"/>
<path d="M119.435 21.0761H122.056L124.408 25.3756L126.88 21.0761H129.382L125.532 27.6677V31.5628H123.285V27.6677L119.435 21.0761Z" fill="#122F38"/>
</svg>
