<svg width="130" height="42" viewBox="0 0 130 42" fill="none" xmlns="http://www.w3.org/2000/svg">
<path fill-rule="evenodd" clip-rule="evenodd" d="M19.2798 31.9054L52.4152 31.9528L36.4389 41.0177L3.54588 41.0117L0 34.9919L1.81345 32.1319L16.9226 8.76737L32.6277 0L17.5312 23.3478L15.7178 26.2078L19.2798 31.9054Z" fill="white"/>
<path fill-rule="evenodd" clip-rule="evenodd" d="M44.33 23.3478L35.977 10.4295L27.6242 23.3478H44.33Z" fill="white"/>
<path d="M54.8616 19.0064L58.6967 8.5197H61.3933L65.1985 19.0064H62.7865L61.9776 16.7143H57.9926L57.1836 19.0064H54.8616ZM58.5919 14.9016H61.3633L59.9701 10.9167L58.5919 14.9016Z" fill="white"/>
<path d="M64.1865 8.5197H66.5684L69.0853 16.2799L71.662 8.5197H73.9841L70.4335 19.0064H67.7519L64.1865 8.5197Z" fill="white"/>
<path d="M75.187 8.5197H82.2281V10.4523H77.4341V12.8043H81.3292V14.6469H77.4341V17.0739H82.3929V19.0064H75.187V8.5197Z" fill="white"/>
<path d="M88.3147 8.5197C89.0638 8.5197 89.7379 8.66951 90.3222 8.95415C90.9064 9.23879 91.3559 9.64327 91.6854 10.1676C92 10.7069 92.1648 11.3212 92.1648 12.0103C92.1648 12.6844 92 13.2837 91.6854 13.793C91.3559 14.3024 90.9214 14.6919 90.3671 14.9615L92.4345 19.0064H89.9476L88.1949 15.4859H86.2923V19.0064H84.0451V8.5197H88.3147ZM86.2923 13.6133H88.1349C88.6593 13.6133 89.0787 13.4784 89.3933 13.1788C89.7079 12.8942 89.8727 12.5047 89.8727 12.0103C89.8727 11.5159 89.7079 11.1264 89.3933 10.8268C89.0787 10.5421 88.6593 10.3923 88.1349 10.3923H86.2923V13.6133Z" fill="white"/>
<path d="M93.9566 8.5197H96.2037V19.0064H93.9566V8.5197Z" fill="white"/>
<path d="M100.062 15.5907C100.092 16.1151 100.302 16.5346 100.691 16.8492C101.081 17.1638 101.59 17.3136 102.234 17.3136C102.759 17.3136 103.193 17.2087 103.523 16.984C103.852 16.7593 104.032 16.4447 104.032 16.0402C104.032 15.7705 103.927 15.5458 103.748 15.381C103.568 15.2162 103.298 15.0814 102.968 14.9915C102.639 14.9016 102.115 14.7818 101.425 14.632C100.736 14.5121 100.152 14.3473 99.6877 14.1376C99.2083 13.9279 98.8337 13.6282 98.5341 13.2237C98.2345 12.8193 98.0997 12.2799 98.0997 11.6058C98.0997 11.0065 98.2645 10.4523 98.594 9.97286C98.9236 9.49346 99.388 9.11894 99.9873 8.84928C100.587 8.57962 101.261 8.42981 102.01 8.42981C102.774 8.42981 103.463 8.57962 104.077 8.86426C104.691 9.1489 105.171 9.53841 105.53 10.0328C105.89 10.5421 106.07 11.0964 106.085 11.7256H103.882C103.822 11.2762 103.643 10.9167 103.313 10.647C102.983 10.3773 102.549 10.2275 102.01 10.2275C101.5 10.2275 101.111 10.3324 100.811 10.5421C100.512 10.7519 100.362 11.0515 100.362 11.441C100.362 11.7256 100.452 11.9504 100.631 12.1002C100.811 12.25 101.066 12.3848 101.395 12.4747C101.725 12.5646 102.234 12.6844 102.924 12.8043C103.613 12.9391 104.212 13.1039 104.691 13.2986C105.171 13.4934 105.545 13.793 105.845 14.1825C106.144 14.572 106.294 15.0964 106.294 15.7555C106.294 16.3997 106.115 16.969 105.77 17.4784C105.41 17.9877 104.931 18.3772 104.302 18.6619C103.673 18.9615 102.983 19.0963 102.204 19.0963C101.366 19.0963 100.616 18.9465 99.9573 18.6469C99.2981 18.3473 98.7888 17.9128 98.4292 17.3735C98.0547 16.8342 97.86 16.2349 97.86 15.5608L100.062 15.5907Z" fill="white"/>
<path d="M54.8616 31.5627L58.6967 21.0759H61.3933L65.1985 31.5627H62.7865L61.9776 29.2706H57.9926L57.1836 31.5627H54.8616ZM58.5919 27.4579H61.3633L59.9701 23.4729L58.5919 27.4579Z" fill="white"/>
<path d="M66.2018 23.5179C66.6212 22.7089 67.2055 22.0947 67.9845 21.6452C68.7635 21.2108 69.6774 20.9861 70.726 20.9861C71.535 20.9861 72.2691 21.1508 72.9282 21.4655C73.5724 21.795 74.0968 22.2445 74.5012 22.8137C74.8908 23.398 75.1305 24.0722 75.2203 24.8212H72.9732C72.8384 24.222 72.5687 23.7576 72.1492 23.413C71.7298 23.0684 71.2204 22.8886 70.6062 22.8886C69.7672 22.8886 69.0931 23.2033 68.6137 23.8325C68.1193 24.4617 67.8796 25.3006 67.8796 26.3193C67.8796 27.338 68.1193 28.177 68.6137 28.8062C69.0931 29.4354 69.7672 29.75 70.6062 29.75C71.2204 29.75 71.7298 29.5852 72.1492 29.2406C72.5687 28.896 72.8384 28.4167 72.9732 27.8174H75.2203C75.1305 28.5814 74.8908 29.2556 74.5012 29.8249C74.0968 30.4091 73.5724 30.8586 72.9282 31.1732C72.2691 31.5028 71.535 31.6526 70.726 31.6526C69.6774 31.6526 68.7635 31.4428 67.9845 30.9934C67.2055 30.5589 66.6212 29.9447 66.2018 29.1357C65.7823 28.3268 65.5875 27.3979 65.5875 26.3193C65.5875 25.2557 65.7823 24.3268 66.2018 23.5179Z" fill="white"/>
<path d="M75.6062 31.5627L79.4414 21.0759H82.138L85.9431 31.5627H83.5312L82.7222 29.2706H78.7373L77.9283 31.5627H75.6062ZM79.3365 27.4579H82.108L80.7148 23.4729L79.3365 27.4579Z" fill="white"/>
<path d="M87.2052 21.0759H90.8456C91.8942 21.0759 92.8081 21.3007 93.6171 21.7501C94.426 22.1995 95.0403 22.8137 95.4747 23.6077C95.9092 24.4017 96.1339 25.3006 96.1339 26.3193C96.1339 27.338 95.9092 28.2519 95.4747 29.0459C95.0403 29.8399 94.426 30.4541 93.6171 30.9035C92.8081 31.3529 91.8942 31.5627 90.8456 31.5627H87.2052V21.0759ZM90.8456 29.69C91.7894 29.69 92.5234 29.3904 93.0478 28.7762C93.5721 28.162 93.8418 27.338 93.8418 26.3193C93.8418 25.3006 93.5721 24.4916 93.0478 23.8774C92.5234 23.2632 91.7894 22.9486 90.8456 22.9486H89.4523V29.69H90.8456Z" fill="white"/>
<path d="M97.8189 21.0759H104.86V23.0085H100.066V25.3605H103.961V27.2032H100.066V29.6301H105.025V31.5627H97.8189V21.0759Z" fill="white"/>
<path d="M106.677 21.0759H109.628L112.535 28.7762L115.351 21.0759H118.242V31.5627H116.1V24.5366L113.374 31.5627H111.546L108.819 24.5366V31.5627H106.677V21.0759Z" fill="white"/>
<path d="M119.435 21.0759H122.057L124.409 25.3755L126.88 21.0759H129.382L125.532 27.6676V31.5627H123.285V27.6676L119.435 21.0759Z" fill="white"/>
</svg>
