<svg width="130" height="42" viewBox="0 0 130 42" fill="none" xmlns="http://www.w3.org/2000/svg">
<path fill-rule="evenodd" clip-rule="evenodd" d="M19.2798 31.9054L52.4152 31.9528L36.4389 41.0177L3.54588 41.0117L0 34.9919L1.81345 32.1319L16.9226 8.76737L32.6277 0L17.5312 23.3478L15.7178 26.2078L19.2798 31.9054Z" fill="#122F38"/>
<path fill-rule="evenodd" clip-rule="evenodd" d="M44.33 23.3478L35.977 10.4295L27.6242 23.3478H44.33Z" fill="#122F38"/>
<path d="M54.8613 19.0064L58.6965 8.5197H61.3931L65.1982 19.0064H62.7863L61.9773 16.7143H57.9924L57.1834 19.0064H54.8613ZM58.5916 14.9016H61.3631L59.9699 10.9167L58.5916 14.9016Z" fill="#122F38"/>
<path d="M64.1862 8.5197H66.5682L69.085 16.2799L71.6617 8.5197H73.9838L70.4333 19.0064H67.7517L64.1862 8.5197Z" fill="#122F38"/>
<path d="M75.1867 8.5197H82.2278V10.4523H77.4339V12.8043H81.329V14.6469H77.4339V17.0739H82.3926V19.0064H75.1867V8.5197Z" fill="#122F38"/>
<path d="M88.3145 8.5197C89.0635 8.5197 89.7377 8.66951 90.3219 8.95415C90.9062 9.23879 91.3556 9.64327 91.6852 10.1676C91.9998 10.7069 92.1646 11.3212 92.1646 12.0103C92.1646 12.6844 91.9998 13.2837 91.6852 13.793C91.3556 14.3024 90.9212 14.6919 90.3669 14.9615L92.4342 19.0064H89.9474L88.1946 15.4859H86.292V19.0064H84.0449V8.5197H88.3145ZM86.292 13.6133H88.1347C88.659 13.6133 89.0785 13.4784 89.3931 13.1788C89.7077 12.8942 89.8725 12.5047 89.8725 12.0103C89.8725 11.5159 89.7077 11.1264 89.3931 10.8268C89.0785 10.5421 88.659 10.3923 88.1347 10.3923H86.292V13.6133Z" fill="#122F38"/>
<path d="M93.9563 8.5197H96.2035V19.0064H93.9563V8.5197Z" fill="#122F38"/>
<path d="M100.062 15.5907C100.092 16.1151 100.302 16.5346 100.691 16.8492C101.081 17.1638 101.59 17.3136 102.234 17.3136C102.759 17.3136 103.193 17.2087 103.523 16.984C103.852 16.7593 104.032 16.4447 104.032 16.0402C104.032 15.7705 103.927 15.5458 103.747 15.381C103.567 15.2162 103.298 15.0814 102.968 14.9915C102.639 14.9016 102.114 14.7818 101.425 14.632C100.736 14.5121 100.152 14.3473 99.6874 14.1376C99.208 13.9279 98.8335 13.6282 98.5339 13.2237C98.2342 12.8193 98.0994 12.2799 98.0994 11.6058C98.0994 11.0065 98.2642 10.4523 98.5938 9.97286C98.9234 9.49346 99.3878 9.11894 99.987 8.84928C100.586 8.57962 101.26 8.42981 102.009 8.42981C102.774 8.42981 103.463 8.57962 104.077 8.86426C104.691 9.1489 105.17 9.53841 105.53 10.0328C105.89 10.5421 106.069 11.0964 106.084 11.7256H103.882C103.822 11.2762 103.642 10.9167 103.313 10.647C102.983 10.3773 102.549 10.2275 102.009 10.2275C101.5 10.2275 101.111 10.3324 100.811 10.5421C100.511 10.7519 100.362 11.0515 100.362 11.441C100.362 11.7256 100.451 11.9504 100.631 12.1002C100.811 12.25 101.066 12.3848 101.395 12.4747C101.725 12.5646 102.234 12.6844 102.923 12.8043C103.612 12.9391 104.212 13.1039 104.691 13.2986C105.17 13.4934 105.545 13.793 105.845 14.1825C106.144 14.572 106.294 15.0964 106.294 15.7555C106.294 16.3997 106.114 16.969 105.77 17.4784C105.41 17.9877 104.931 18.3772 104.302 18.6619C103.672 18.9615 102.983 19.0963 102.204 19.0963C101.365 19.0963 100.616 18.9465 99.9571 18.6469C99.2979 18.3473 98.7885 17.9128 98.429 17.3735C98.0545 16.8342 97.8597 16.2349 97.8597 15.5608L100.062 15.5907Z" fill="#122F38"/>
<path d="M54.8613 31.5627L58.6965 21.0759H61.3931L65.1982 31.5627H62.7863L61.9773 29.2706H57.9924L57.1834 31.5627H54.8613ZM58.5916 27.4579H61.3631L59.9699 23.4729L58.5916 27.4579Z" fill="#122F38"/>
<path d="M66.2015 23.5179C66.621 22.7089 67.2052 22.0947 67.9843 21.6452C68.7633 21.2108 69.6771 20.9861 70.7258 20.9861C71.5348 20.9861 72.2688 21.1508 72.928 21.4655C73.5722 21.795 74.0965 22.2445 74.501 22.8137C74.8905 23.398 75.1302 24.0722 75.2201 24.8212H72.9729C72.8381 24.222 72.5684 23.7576 72.149 23.413C71.7295 23.0684 71.2202 22.8886 70.6059 22.8886C69.767 22.8886 69.0928 23.2033 68.6135 23.8325C68.1191 24.4617 67.8794 25.3006 67.8794 26.3193C67.8794 27.338 68.1191 28.177 68.6135 28.8062C69.0928 29.4354 69.767 29.75 70.6059 29.75C71.2202 29.75 71.7295 29.5852 72.149 29.2406C72.5684 28.896 72.8381 28.4167 72.9729 27.8174H75.2201C75.1302 28.5814 74.8905 29.2556 74.501 29.8249C74.0965 30.4091 73.5722 30.8586 72.928 31.1732C72.2688 31.5028 71.5348 31.6526 70.7258 31.6526C69.6771 31.6526 68.7633 31.4428 67.9843 30.9934C67.2052 30.5589 66.621 29.9447 66.2015 29.1357C65.782 28.3268 65.5873 27.3979 65.5873 26.3193C65.5873 25.2557 65.782 24.3268 66.2015 23.5179Z" fill="#122F38"/>
<path d="M75.606 31.5627L79.4411 21.0759H82.1377L85.9429 31.5627H83.5309L82.722 29.2706H78.737L77.928 31.5627H75.606ZM79.3363 27.4579H82.1077L80.7145 23.4729L79.3363 27.4579Z" fill="#122F38"/>
<path d="M87.2049 21.0759H90.8453C91.894 21.0759 92.8078 21.3007 93.6168 21.7501C94.4258 22.1995 95.04 22.8137 95.4745 23.6077C95.9089 24.4017 96.1336 25.3006 96.1336 26.3193C96.1336 27.338 95.9089 28.2519 95.4745 29.0459C95.04 29.8399 94.4258 30.4541 93.6168 30.9035C92.8078 31.3529 91.894 31.5627 90.8453 31.5627H87.2049V21.0759ZM90.8453 29.69C91.7891 29.69 92.5232 29.3904 93.0475 28.7762C93.5719 28.162 93.8415 27.338 93.8415 26.3193C93.8415 25.3006 93.5719 24.4916 93.0475 23.8774C92.5232 23.2632 91.7891 22.9486 90.8453 22.9486H89.4521V29.69H90.8453Z" fill="#122F38"/>
<path d="M97.8186 21.0759H104.86V23.0085H100.066V25.3605H103.961V27.2032H100.066V29.6301H105.025V31.5627H97.8186V21.0759Z" fill="#122F38"/>
<path d="M106.677 21.0759H109.628L112.534 28.7762L115.351 21.0759H118.242V31.5627H116.1V24.5366L113.373 31.5627H111.546L108.819 24.5366V31.5627H106.677V21.0759Z" fill="#122F38"/>
<path d="M119.435 21.0759H122.056L124.408 25.3755L126.88 21.0759H129.382L125.532 27.6676V31.5627H123.285V27.6676L119.435 21.0759Z" fill="#122F38"/>
</svg>
