<svg width="130" height="42" viewBox="0 0 130 42" fill="none" xmlns="http://www.w3.org/2000/svg">
<path fill-rule="evenodd" clip-rule="evenodd" d="M19.2798 31.9054L52.4152 31.9528L36.4389 41.0177L3.54588 41.0117L0 34.9919L1.81345 32.1319L16.9226 8.76737L32.6277 0L17.5312 23.3478L15.7178 26.2078L19.2798 31.9054Z" fill="#40D457"/>
<path fill-rule="evenodd" clip-rule="evenodd" d="M44.33 23.3478L35.977 10.4295L27.6242 23.3478H44.33Z" fill="#40D457"/>
<path d="M54.8616 19.0065L58.6967 8.51982H61.3933L65.1985 19.0065H62.7865L61.9776 16.7144H57.9926L57.1836 19.0065H54.8616ZM58.5919 14.9017H61.3633L59.9701 10.9168L58.5919 14.9017Z" fill="#EDF1F7"/>
<path d="M64.1865 8.51982H66.5684L69.0853 16.28L71.662 8.51982H73.9841L70.4335 19.0065H67.7519L64.1865 8.51982Z" fill="#EDF1F7"/>
<path d="M75.187 8.51982H82.2281V10.4524H77.4341V12.8044H81.3292V14.6471H77.4341V17.074H82.3929V19.0065H75.187V8.51982Z" fill="#EDF1F7"/>
<path d="M88.3147 8.51982C89.0638 8.51982 89.7379 8.66963 90.3222 8.95427C90.9064 9.23891 91.3559 9.6434 91.6854 10.1677C92 10.7071 92.1648 11.3213 92.1648 12.0104C92.1648 12.6845 92 13.2838 91.6854 13.7931C91.3559 14.3025 90.9214 14.692 90.3671 14.9617L92.4345 19.0065H89.9476L88.1949 15.486H86.2923V19.0065H84.0451V8.51982H88.3147ZM86.2923 13.6134H88.1349C88.6593 13.6134 89.0787 13.4785 89.3933 13.1789C89.7079 12.8943 89.8727 12.5048 89.8727 12.0104C89.8727 11.516 89.7079 11.1265 89.3933 10.8269C89.0787 10.5423 88.6593 10.3924 88.1349 10.3924H86.2923V13.6134Z" fill="#EDF1F7"/>
<path d="M93.9566 8.51982H96.2037V19.0065H93.9566V8.51982Z" fill="#EDF1F7"/>
<path d="M100.062 15.5909C100.092 16.1152 100.302 16.5347 100.691 16.8493C101.081 17.1639 101.59 17.3137 102.234 17.3137C102.759 17.3137 103.193 17.2088 103.523 16.9841C103.852 16.7594 104.032 16.4448 104.032 16.0403C104.032 15.7706 103.927 15.5459 103.748 15.3811C103.568 15.2163 103.298 15.0815 102.968 14.9916C102.639 14.9017 102.115 14.7819 101.425 14.6321C100.736 14.5122 100.152 14.3474 99.6877 14.1377C99.2083 13.928 98.8337 13.6284 98.5341 13.2239C98.2345 12.8194 98.0997 12.2801 98.0997 11.6059C98.0997 11.0067 98.2645 10.4524 98.594 9.97298C98.9236 9.49359 99.388 9.11906 99.9873 8.8494C100.587 8.57974 101.261 8.42993 102.01 8.42993C102.774 8.42993 103.463 8.57974 104.077 8.86438C104.691 9.14902 105.171 9.53853 105.53 10.0329C105.89 10.5423 106.07 11.0966 106.085 11.7258H103.882C103.822 11.2763 103.643 10.9168 103.313 10.6471C102.983 10.3775 102.549 10.2277 102.01 10.2277C101.5 10.2277 101.111 10.3325 100.811 10.5423C100.512 10.752 100.362 11.0516 100.362 11.4411C100.362 11.7258 100.452 11.9505 100.631 12.1003C100.811 12.2501 101.066 12.3849 101.395 12.4748C101.725 12.5647 102.234 12.6845 102.924 12.8044C103.613 12.9392 104.212 13.104 104.691 13.2988C105.171 13.4935 105.545 13.7931 105.845 14.1827C106.144 14.5722 106.294 15.0965 106.294 15.7557C106.294 16.3998 106.115 16.9691 105.77 17.4785C105.41 17.9878 104.931 18.3773 104.302 18.662C103.673 18.9616 102.983 19.0964 102.204 19.0964C101.366 19.0964 100.616 18.9466 99.9573 18.647C99.2981 18.3474 98.7888 17.9129 98.4292 17.3736C98.0547 16.8343 97.86 16.2351 97.86 15.5609L100.062 15.5909Z" fill="#EDF1F7"/>
<path d="M54.8616 31.5628L58.6967 21.0761H61.3933L65.1985 31.5628H62.7865L61.9776 29.2707H57.9926L57.1836 31.5628H54.8616ZM58.5919 27.458H61.3633L59.9701 23.473L58.5919 27.458Z" fill="#EDF1F7"/>
<path d="M66.2018 23.518C66.6212 22.709 67.2055 22.0948 67.9845 21.6453C68.7635 21.2109 69.6774 20.9862 70.726 20.9862C71.535 20.9862 72.2691 21.151 72.9282 21.4656C73.5724 21.7952 74.0968 22.2446 74.5012 22.8139C74.8908 23.3981 75.1305 24.0723 75.2203 24.8213H72.9732C72.8384 24.2221 72.5687 23.7577 72.1492 23.4131C71.7298 23.0685 71.2204 22.8888 70.6062 22.8888C69.7672 22.8888 69.0931 23.2034 68.6137 23.8326C68.1193 24.4618 67.8796 25.3007 67.8796 26.3194C67.8796 27.3381 68.1193 28.1771 68.6137 28.8063C69.0931 29.4355 69.7672 29.7501 70.6062 29.7501C71.2204 29.7501 71.7298 29.5853 72.1492 29.2407C72.5687 28.8962 72.8384 28.4168 72.9732 27.8175H75.2203C75.1305 28.5816 74.8908 29.2557 74.5012 29.825C74.0968 30.4093 73.5724 30.8587 72.9282 31.1733C72.2691 31.5029 71.535 31.6527 70.726 31.6527C69.6774 31.6527 68.7635 31.4429 67.9845 30.9935C67.2055 30.5591 66.6212 29.9448 66.2018 29.1359C65.7823 28.3269 65.5875 27.3981 65.5875 26.3194C65.5875 25.2558 65.7823 24.327 66.2018 23.518Z" fill="#EDF1F7"/>
<path d="M75.6062 31.5628L79.4414 21.0761H82.138L85.9431 31.5628H83.5312L82.7222 29.2707H78.7373L77.9283 31.5628H75.6062ZM79.3365 27.458H82.108L80.7148 23.473L79.3365 27.458Z" fill="#EDF1F7"/>
<path d="M87.2052 21.0761H90.8456C91.8942 21.0761 92.8081 21.3008 93.6171 21.7502C94.426 22.1996 95.0403 22.8139 95.4747 23.6079C95.9092 24.4019 96.1339 25.3007 96.1339 26.3194C96.1339 27.3381 95.9092 28.252 95.4747 29.046C95.0403 29.84 94.426 30.4542 93.6171 30.9036C92.8081 31.3531 91.8942 31.5628 90.8456 31.5628H87.2052V21.0761ZM90.8456 29.6902C91.7894 29.6902 92.5234 29.3905 93.0478 28.7763C93.5721 28.1621 93.8418 27.3381 93.8418 26.3194C93.8418 25.3007 93.5721 24.4917 93.0478 23.8775C92.5234 23.2633 91.7894 22.9487 90.8456 22.9487H89.4523V29.6902H90.8456Z" fill="#EDF1F7"/>
<path d="M97.8189 21.0761H104.86V23.0086H100.066V25.3606H103.961V27.2033H100.066V29.6302H105.025V31.5628H97.8189V21.0761Z" fill="#EDF1F7"/>
<path d="M106.677 21.0761H109.628L112.535 28.7763L115.351 21.0761H118.242V31.5628H116.1V24.5367L113.374 31.5628H111.546L108.819 24.5367V31.5628H106.677V21.0761Z" fill="#EDF1F7"/>
<path d="M119.435 21.0761H122.057L124.409 25.3756L126.88 21.0761H129.382L125.532 27.6677V31.5628H123.285V27.6677L119.435 21.0761Z" fill="#EDF1F7"/>
</svg>
